<?xml version="1.0" encoding="UTF-8"?>
<svg version="1.1" xmlns="http://www.w3.org/2000/svg" width="500" height="500">
<path d="M0 0 C5.37599759 4.55217959 10.6044108 9.23960243 15.78100586 14.0168457 C17.0553801 15.1922139 17.0553801 15.1922139 18.35549927 16.3913269 C26.18749248 23.64137717 33.91509275 30.99864169 41.60509396 38.39866352 C46.7545135 43.34890056 51.93550493 48.25361918 57.21411133 53.06616211 C95.5934211 88.11856217 95.5934211 88.11856217 96.87722492 107.92030239 C97.0438417 116.75160882 95.93440573 125.39847067 94 134 C92.68 134 91.36 134 90 134 C90.20045425 133.03179321 90.40090851 132.06358643 90.60743713 131.06604004 C93.01219147 118.01037503 94.15594592 103.00176184 87.33535004 91.09368896 C82.19611111 83.6820044 76.03041957 77.18860779 69.65234375 70.84375 C69.17040951 70.36432575 68.68847528 69.8849015 68.19193697 69.39094925 C62.16697823 63.43059643 55.98195106 57.6507584 49.73434699 51.92530918 C44.34227155 46.97609287 39.06642239 41.909438 33.79500568 36.83238506 C22.9833951 26.42431993 12.04140533 16.16440162 1 6 C-0.11445331 6.94933812 -1.22806434 7.89966507 -2.34132385 8.85040283 C-2.96155709 9.37950886 -3.58179033 9.90861488 -4.22081852 10.45375443 C-8.31844113 14.0149037 -12.09925321 17.91467203 -15.9375 21.75 C-16.81212891 22.61238281 -17.68675781 23.47476563 -18.58789062 24.36328125 C-19.41353516 25.18699219 -20.23917969 26.01070312 -21.08984375 26.859375 C-21.84128662 27.60670898 -22.59272949 28.35404297 -23.36694336 29.12402344 C-25.21886149 30.83688423 -25.21886149 30.83688423 -25 33 C-23.68481923 34.33687435 -23.68481923 34.33687435 -21.875 35.76171875 C-15.89841362 40.84629698 -10.40542869 46.40853224 -4.86083984 51.95385742 C-2.98162361 53.83085469 -1.09450377 55.69966889 0.79296875 57.56835938 C1.98746644 58.7599284 3.18149464 59.95196829 4.375 61.14453125 C4.94049561 61.70284134 5.50599121 62.26115143 6.08862305 62.83638 C10 66.77113553 10 66.77113553 10 69 C10.56847656 69.24234375 11.13695312 69.4846875 11.72265625 69.734375 C18.2921059 73.38532129 23.28742518 80.24018633 28 86 C30.50961018 88.61537759 33.00949622 91.00754812 35.84907532 93.26460266 C41.07058343 97.66267606 44.48596708 101.11102735 45.23057842 108.09016705 C45.42569199 112.04036043 45.38051327 115.96539318 45.29296875 119.91796875 C45.29489409 121.62861819 45.30167495 123.33926837 45.31306458 125.04988098 C45.329948 129.51764467 45.28158242 133.98232427 45.21887207 138.44958496 C45.16648296 143.02170677 45.17682671 147.59365956 45.18164062 152.16601562 C45.18193879 161.11159926 45.11319644 170.05518208 45 179 C43.68 179.33 42.36 179.66 41 180 C41.13847351 179.1988678 41.27694702 178.3977356 41.4196167 177.57232666 C43.12254335 167.16380316 44.17746541 156.7791761 44.75 146.25 C44.79633198 145.40553818 44.84266396 144.56107635 44.89039993 143.69102478 C45.95593172 120.92220359 42.33383258 103.65258955 27.01823807 86.25263214 C20.31454253 78.90165542 13.25568745 71.98583831 5.9375 65.25 C5.12522446 64.50192581 4.31294891 63.75385162 3.47605896 62.98310852 C-6.73031747 53.64025853 -17.21710133 44.66936286 -28 36 C-35.27884411 39.42975897 -41.72307822 45.1743523 -46 52 C-48.38261 58.69919389 -47.83501594 65.95446366 -47.68115234 72.95849609 C-47.68707666 75.03937811 -47.69916652 77.12025021 -47.71690369 79.20106506 C-47.74746503 84.81099297 -47.6925282 90.41711674 -47.62144423 96.02655363 C-47.56177726 101.90286128 -47.58182211 107.77890376 -47.59317017 113.65542603 C-47.60263664 124.7656074 -47.54111031 135.87419899 -47.45364916 146.98399413 C-47.35750831 159.63944807 -47.34115847 172.29461926 -47.3312881 184.95038867 C-47.30922094 210.96760843 -47.18484586 236.98347125 -47 263 C-37.76 263 -28.52 263 -19 263 C-19.16048828 256.42964844 -19.16048828 256.42964844 -19.32421875 249.7265625 C-19.40088033 246.23946784 -19.47449524 242.75233858 -19.5460434 239.26513672 C-19.62247473 235.58081426 -19.70430168 231.89679086 -19.79907227 228.21289062 C-19.89010151 224.66640841 -19.96642514 221.11988968 -20.03244972 217.5728569 C-20.0602767 216.21792118 -20.09345148 214.86308465 -20.13199425 213.50841141 C-20.18496676 211.6148351 -20.21737388 209.72071692 -20.2487793 207.82666016 C-20.27320602 206.74744293 -20.29763275 205.66822571 -20.32279968 204.55630493 C-20.21627579 203.7127243 -20.10975189 202.86914368 -20 202 C-16.03844201 199.35896134 -12.75182976 199.84753827 -8.17578125 200.0234375 C-6.88367989 200.06097641 -6.88367989 200.06097641 -5.56547546 200.09927368 C-2.81408183 200.18144859 -0.06340871 200.27804745 2.6875 200.375 C4.55270494 200.43324215 6.41793945 200.49054538 8.28320312 200.546875 C12.85588319 200.68702364 17.42796936 200.84011006 22 201 C22.14519124 206.93662261 22.28745712 212.87330631 22.42724609 218.81005859 C22.47498416 220.8211446 22.52346188 222.8322132 22.57275391 224.84326172 C22.64429921 227.76785861 22.71300024 230.69251204 22.78125 233.6171875 C22.80312378 234.48673065 22.82499756 235.3562738 22.84753418 236.25216675 C23.05061553 245.17395539 23 254.0668557 23 263 C45.11 263 67.22 263 90 263 C90 249.47 90 235.94 90 222 C91.32 222 92.64 222 94 222 C94.02527124 228.24795675 94.04283344 234.49590041 94.05493164 240.74389648 C94.05997298 242.87118014 94.06680591 244.99846031 94.07543945 247.12573242 C94.08751379 250.17627826 94.09323014 253.22677845 94.09765625 256.27734375 C94.10281754 257.23462875 94.10797882 258.19191376 94.11329651 259.1782074 C94.11337204 260.05904495 94.11344757 260.93988251 94.11352539 261.84741211 C94.115746 262.62684677 94.11796661 263.40628143 94.12025452 264.20933533 C94 266 94 266 93 267 C91.15238732 267.09648248 89.3010419 267.12187318 87.45091248 267.12025452 C86.24883117 267.12163201 85.04674986 267.12300951 83.80824184 267.12442875 C82.45866816 267.12088149 81.10909471 267.11724359 79.75952148 267.11352539 C78.32763961 267.11321928 76.89575758 267.11335217 75.46387577 267.11389065 C71.61646079 267.11411715 67.76907668 267.10830574 63.92166901 267.10128021 C60.31630858 267.0956009 56.7109558 267.09531795 53.10559082 267.09460449 C42.54955643 267.08934941 31.99352783 267.07538837 21.4375 267.0625 C-2.136875 267.041875 -25.71125 267.02125 -50 267 C-50.33 197.7 -50.66 128.4 -51 57 C-84.13779113 84.75336693 -84.13779113 84.75336693 -90.37565899 117.65651226 C-90.31295984 119.21943519 -90.22746985 120.78163098 -90.11784363 122.34196472 C-90.03857974 124.14104271 -89.96128645 125.94020838 -89.88574791 127.73944664 C-89.84118768 128.64466112 -89.79662746 129.5498756 -89.75071692 130.48252082 C-89.55572008 135.23641127 -89.56733984 139.99051404 -89.5539093 144.74775696 C-89.49882934 153.69566033 -89.26704485 162.62921068 -88.96604902 171.57185537 C-88.63159655 181.7766539 -88.50267462 191.98113213 -88.38808382 202.19039476 C-88.14855109 223.13411983 -87.66040943 244.0655831 -87 265 C-87.99 265 -88.98 265 -90 265 C-90.17726529 242.79080503 -90.34293664 220.58155058 -90.49477577 198.37216663 C-90.56554684 188.06015476 -90.64012305 177.74819653 -90.72363281 167.4362793 C-90.79640346 158.44925637 -90.86205946 149.46221457 -90.91914403 140.47507781 C-90.94962384 135.71571038 -90.98368515 130.95642894 -91.02626419 126.19715309 C-91.06622304 121.71819088 -91.09667337 117.23926495 -91.11981392 112.76018524 C-91.12998855 111.1158385 -91.143645 109.47150908 -91.16103554 107.82722282 C-91.18425693 105.58245503 -91.19495735 103.3379611 -91.20254517 101.09309387 C-91.2117631 99.83669003 -91.22098103 98.5802862 -91.23047829 97.28580952 C-90.94127038 93.16272221 -90.18297203 90.24735095 -87.31686401 87.2252655 C-86.31092697 86.4102935 -86.31092697 86.4102935 -85.28466797 85.57885742 C-84.52421173 84.94612411 -83.76375549 84.31339081 -82.98025513 83.66148376 C-82.15919281 82.98299881 -81.33813049 82.30451385 -80.4921875 81.60546875 C-58.7604466 64.21415226 -58.7604466 64.21415226 -48.5546875 39.66015625 C-48.17198804 31.15001578 -49.13011231 22.6656345 -50.62402344 14.29589844 C-50.7480957 13.20825195 -50.87216797 12.12060547 -51 11 C-50.34 10.34 -49.68 9.68 -49 9 C-44.54426393 12.752768 -40.60287899 16.40322336 -37 21 C-35.34106818 22.34294481 -33.67523395 23.67744688 -32 25 C-31.34 25.99 -30.68 26.98 -30 28 C-25.80374091 26.36221955 -23.01323215 23.26676818 -19.921875 20.1171875 C-19.35043762 19.54292023 -18.77900024 18.96865295 -18.19024658 18.37698364 C-16.37207055 16.5476419 -14.56098508 14.71145807 -12.75 12.875 C-11.51608671 11.63105226 -10.28171678 10.3875573 -9.046875 9.14453125 C-6.02593257 6.10157633 -3.01132908 3.05246746 0 0 Z M-47 17 C-47 26.9 -47 36.8 -47 47 C-41.10578217 41.95586645 -41.10578217 41.95586645 -35.5625 36.625 C-34.88316406 35.93664062 -34.20382813 35.24828125 -33.50390625 34.5390625 C-33.00761719 34.03117187 -32.51132813 33.52328125 -32 33 C-33.66169474 28.69422496 -36.83080306 25.90988145 -40.0625 22.75 C-40.89491211 21.91855469 -40.89491211 21.91855469 -41.74414062 21.0703125 C-44.00471296 18.28255682 -44.00471296 18.28255682 -47 17 Z M-15 204 C-15.90797604 216.09016731 -16.11131336 228.13157037 -16.125 240.25 C-16.12749756 241.0296109 -16.12999512 241.8092218 -16.13256836 242.61245728 C-16.13850151 244.87189078 -16.13694826 247.13118971 -16.1328125 249.390625 C-16.13479645 250.06822372 -16.1367804 250.74582245 -16.13882446 251.44395447 C-16.1192478 255.48729524 -15.67538846 258.94766926 -15 263 C-3.78 263 7.44 263 19 263 C19.02327731 257.79364185 19.04308929 252.58747277 19.05493164 247.38110352 C19.05988165 245.61937846 19.06664335 243.85765732 19.07543945 242.09594727 C19.13569391 229.69416167 18.78170038 217.37765703 18 205 C15.02640551 203.51320275 12.33700821 203.88887395 9.0234375 203.90234375 C8.33819 203.9037587 7.6529425 203.90517365 6.94692993 203.90663147 C4.75624239 203.91223325 2.5656567 203.92478594 0.375 203.9375 C-1.10937352 203.94251478 -2.59374865 203.94707772 -4.078125 203.95117188 C-7.71878315 203.96220323 -11.35938164 203.97946901 -15 204 Z " fill="#F29357" transform="translate(177,102)"/>
<path d="M0 0 C2.31 0 4.62 0 7 0 C7.33 14.19 7.66 28.38 8 43 C8.99 41.35 9.98 39.7 11 38 C13 37 13 37 15 37 C16.75 37.9375 16.75 37.9375 18 40 C18.06408115 42.01855632 18.12081975 44.04067607 18.0390625 46.05859375 C17.99622464 48.18763541 18.32708452 49.98125356 19 52 C18.27425781 52.33644531 17.54851562 52.67289062 16.80078125 53.01953125 C13.06968634 55.65783685 11.3944149 58.75471154 9.1875 62.6875 C8.57745117 63.7403418 8.57745117 63.7403418 7.95507812 64.81445312 C6.95919882 66.53673852 5.97809682 68.26755399 5 70 C5.58652344 69.66742188 6.17304688 69.33484375 6.77734375 68.9921875 C10.14088229 67.49071336 12.49445943 68.10768058 16 69 C16.45375 69.680625 16.9075 70.36125 17.375 71.0625 C18.79374086 73.12240426 18.79374086 73.12240426 20.7890625 73.5078125 C28.25400866 74.11450424 33.17651025 70.21964339 39 66 C42 64 42 64 45.625 64.3125 C49 65 49 65 50 66 C50.04080783 67.99958364 50.04254356 70.00045254 50 72 C58.17029932 71.25724552 64.22615173 69.93261331 70.9765625 65.14453125 C71.64429688 64.76683594 72.31203125 64.38914062 73 64 C74.485 64.495 74.485 64.495 76 65 C75.34 67.64 74.68 70.28 74 73 C78.20013757 69.68658464 78.20013757 69.68658464 81.6875 65.6875 C82.3371875 64.8521875 82.3371875 64.8521875 83 64 C83.99 64 84.98 64 86 64 C85.98839844 64.62648438 85.97679687 65.25296875 85.96484375 65.8984375 C85.95582031 66.71570313 85.94679688 67.53296875 85.9375 68.375 C85.92589844 69.18710937 85.91429687 69.99921875 85.90234375 70.8359375 C85.85533666 73.04937142 85.85533666 73.04937142 87 75 C96.82892076 75.91008526 103.28994293 71.56319428 110.75 65.5 C112.50649068 64.00760579 114.25714326 62.50829386 116 61 C117.22687923 59.97641867 118.4555368 58.95495667 119.6875 57.9375 C120.8321875 56.9784375 120.8321875 56.9784375 122 56 C122.66 56.33 123.32 56.66 124 57 C123.67 57.5775 123.34 58.155 123 58.75 C121.72924102 61.19883862 121.72924102 61.19883862 122 65 C122.99 65.680625 122.99 65.680625 124 66.375 C124.66 66.91125 125.32 67.4475 126 68 C126.125 71.1015625 126.125 71.1015625 126 74 C132.13504549 71.12222093 137.89467863 68.22384483 143.3125 64.125 C146.29646269 61.93996925 148.31677999 60.54567951 152.0625 60.5 C155 61 155 61 156 62 C156.4375 64.3125 156.4375 64.3125 156 67 C152.82829953 69.79411708 150.86359664 70.93602988 146.625 71.25 C145.75875 71.1675 144.8925 71.085 144 71 C146.47969059 73.7158516 148.35207761 74.81245659 152.09375 75.23828125 C161.90887159 75.54102039 169.86033512 71.99700136 178.125 66.953125 C180 66 180 66 183 66 C182.82421875 67.77734375 182.82421875 67.77734375 182 70 C173.87071896 76.62016757 163.3027181 80.38435358 152.80859375 79.83203125 C148.0830723 79.0958315 144.60460001 78.28419112 141 75 C140.67 74.01 140.34 73.02 140 72 C139.27296875 72.433125 138.5459375 72.86625 137.796875 73.3125 C130.4472245 77.38307566 124.42257346 79.31919825 116 78 C113.20513549 77.01589278 112.26424564 76.44921759 110.75 73.875 C110.37875 72.946875 110.37875 72.946875 110 72 C109.34773438 72.40992188 108.69546875 72.81984375 108.0234375 73.2421875 C100.76202056 77.71899028 95.67479794 80.46081706 87.05078125 79.58203125 C84.57007921 78.87798439 83.54265133 78.05197114 82 76 C82 75.01 82 74.02 82 73 C81.32904297 73.55880859 81.32904297 73.55880859 80.64453125 74.12890625 C75.64493997 78.04116638 75.64493997 78.04116638 72.0625 77.8125 C71.381875 77.544375 70.70125 77.27625 70 77 C69.67 75.35 69.34 73.7 69 72 C68.0925 72.474375 67.185 72.94875 66.25 73.4375 C62.12343669 75.42142467 58.93708852 76.14025782 54.375 76.125 C53.59898437 76.12757813 52.82296875 76.13015625 52.0234375 76.1328125 C50 76 50 76 48 75 C47.505 76.485 47.505 76.485 47 78 C44.39793134 79.2081033 43.14624292 79.04178369 40.375 78.25 C38 77 38 77 36 74 C35.443125 74.28875 34.88625 74.5775 34.3125 74.875 C28.90340614 77.50645107 25.01567184 78.88755814 19 78 C17.34375 76.8359375 17.34375 76.8359375 15.8125 75.4375 C13.29503588 72.76480871 13.29503588 72.76480871 10.4375 72.8125 C7.9318856 74.03318394 7.07382357 74.93263164 5.375 77.0625 C4.59125 78.031875 3.8075 79.00125 3 80 C2.01 80 1.02 80 0 80 C-0.22615016 73.83740819 0.55850102 68.48027281 2 62.5 C2.19078125 61.67757812 2.3815625 60.85515625 2.578125 60.0078125 C3.04427304 58.00337593 3.52102976 56.00141137 4 54 C2.68 53.67 1.36 53.34 0 53 C0 35.51 0 18.02 0 0 Z M13 42 C12.01 43.485 12.01 43.485 11 45 C11.33 45.99 11.66 46.98 12 48 C12.66 47.01 13.32 46.02 14 45 C13.67 44.01 13.34 43.02 13 42 Z M9 53 C8.34 54.65 7.68 56.3 7 58 C7.99 57.01 8.98 56.02 10 55 C9.67 54.34 9.34 53.68 9 53 Z M151 64 C149.68 64.99 148.36 65.98 147 67 C148.65 66.67 150.3 66.34 152 66 C151.67 65.34 151.34 64.68 151 64 Z M113.375 68.5 C112.59125 69.325 111.8075 70.15 111 71 C115.16434334 73.47954966 115.16434334 73.47954966 119.875 73.6875 C120.926875 73.3471875 120.926875 73.3471875 122 73 C122.33 72.01 122.66 71.02 123 70 C118.29352113 65.44645418 118.29352113 65.44645418 113.375 68.5 Z M42 69 C41.34 70.32 40.68 71.64 40 73 C41.98 73.99 41.98 73.99 44 75 C44.33 74.34 44.66 73.68 45 73 C44.01 71.68 43.02 70.36 42 69 Z " fill="#EE7C31" transform="translate(234,238)"/>
<path d="M0 0 C3.3 0 6.6 0 10 0 C12 10 14 20 16 30 C16.14622803 29.16227051 16.29245605 28.32454102 16.44311523 27.46142578 C16.98667643 24.35616267 17.53303318 21.25140831 18.08129883 18.14697266 C18.31810066 16.80276927 18.55378425 15.45836839 18.78833008 14.11376953 C19.12548086 12.18210225 19.46697611 10.25119482 19.80859375 8.3203125 C20.01282959 7.15773926 20.21706543 5.99516602 20.42749023 4.79736328 C21 2 21 2 22 0 C25.3 0 28.6 0 32 0 C32 17.49 32 34.98 32 53 C29.69 53 27.38 53 25 53 C24.67 42.44 24.34 31.88 24 21 C22.68 27.93 21.36 34.86 20 42 C15 43 15 43 12 42 C10.68 35.4 9.36 28.8 8 22 C7.67 32.23 7.34 42.46 7 53 C3 54 3 54 0 53 C0 35.51 0 18.02 0 0 Z " fill="#F39355" transform="translate(302,238)"/>
<path d="M0 0 C13.96551724 0 13.96551724 0 18 3 C22.104487 8.5844703 21.79490423 14.32280446 21 21 C19.93516944 23.5721881 18.89864274 24.9233595 17 27 C17.639375 27.28875 18.27875 27.5775 18.9375 27.875 C21 29 21 29 22 31 C22.1509482 33.45290828 22.23128564 35.85858009 22.25 38.3125 C22.27578125 39.62863281 22.3015625 40.94476563 22.328125 42.30078125 C21.98528315 46.16591501 21.36079233 47.97178741 19 51 C15.52990269 53.31339821 13.61483064 53.40483708 9.5 53.6875 C8.3553125 53.77386719 7.210625 53.86023438 6.03125 53.94921875 C3 54 3 54 0 53 C0 35.51 0 18.02 0 0 Z M7 6 C7 11.94 7 17.88 7 24 C12.75405717 23.74543907 12.75405717 23.74543907 14.35546875 21.21875 C15.70335007 16.57877068 15.85872526 11.85303873 13.8125 7.4375 C11.73264267 5.48217107 11.73264267 5.48217107 7 6 Z M7 29 C7 34.94 7 40.88 7 47 C8.65 47.33 10.3 47.66 12 48 C14.53844009 46.18682851 14.99489025 45.01532925 16 42 C16.39741243 36.73428531 15.6667422 33.5556846 13 29 C11.02 29 9.04 29 7 29 Z " fill="#F19357" transform="translate(350,238)"/>
<path d="M0 0 C2.31 0 4.62 0 7 0 C7.02505615 1.31194336 7.0501123 2.62388672 7.07592773 3.97558594 C7.17010671 8.84352367 7.27030194 13.71132221 7.37231445 18.57910156 C7.41562358 20.68583927 7.45730153 22.79261117 7.49731445 24.89941406 C7.55511427 27.92783919 7.61878096 30.95609285 7.68359375 33.984375 C7.70030624 34.92617615 7.71701874 35.86797729 7.73423767 36.83831787 C7.75418289 37.71892883 7.77412811 38.59953979 7.79467773 39.50683594 C7.81022202 40.27960876 7.8257663 41.05238159 7.84178162 41.84857178 C8.00018514 44.00251749 8.41218206 45.92563438 9 48 C11.97065509 47.65772428 11.97065509 47.65772428 15 47 C16.15306004 44.69387991 16.14790934 43.31703847 16.18945312 40.74975586 C16.20617065 39.87222153 16.22288818 38.99468719 16.2401123 38.09056091 C16.25368774 37.14157425 16.26726318 36.19258759 16.28125 35.21484375 C16.29965942 34.24341934 16.31806885 33.27199493 16.33703613 32.27113342 C16.41591343 28.10233843 16.48360253 23.93337838 16.55224609 19.7644043 C16.6038364 16.72696597 16.66113296 13.68967273 16.71875 10.65234375 C16.73232544 9.70133286 16.74590088 8.75032196 16.7598877 7.77049255 C16.77660522 6.89611038 16.79332275 6.02172821 16.81054688 5.12084961 C16.82933899 3.96074623 16.82933899 3.96074623 16.84851074 2.77720642 C17 1 17 1 18 0 C19.99958364 -0.04080783 22.00045254 -0.04254356 24 0 C25.24138116 4.7628625 25.08526162 9.36776462 24.984375 14.24609375 C24.96787903 15.13482681 24.95138306 16.02355988 24.93438721 16.93922424 C24.89698298 18.8144455 24.85644905 20.6896066 24.81298828 22.56469727 C24.75029771 25.42392191 24.70880977 28.2829689 24.66796875 31.14257812 C24.62891164 32.96877843 24.58858892 34.7949522 24.546875 36.62109375 C24.53734802 37.47126572 24.52782104 38.32143768 24.51800537 39.19737244 C24.3759226 44.16097758 23.79563283 47.72725076 21 52 C16.81465104 54.67862334 14.21131916 55.3393364 9.3125 54.5 C6.15058687 53.62199005 4.98338799 52.98463389 2.5 50.6875 C-0.6006373 45.1321915 -0.13260838 39.30024851 -0.09765625 33.10546875 C-0.0962413 32.15811356 -0.09482635 31.21075836 -0.09336853 30.23469543 C-0.08778611 27.21893105 -0.07523682 24.20324182 -0.0625 21.1875 C-0.05748273 19.13867295 -0.05292022 17.08984473 -0.04882812 15.04101562 C-0.03782243 10.02731494 -0.02056988 5.0136702 0 0 Z " fill="#F49354" transform="translate(386,238)"/>
<path d="M0 0 C2.97 0 5.94 0 9 0 C10.28673466 6.90418882 11.56791048 13.80939239 12.84521484 20.71533203 C13.28045573 23.06485384 13.71697171 25.4141398 14.15478516 27.76318359 C14.78362513 31.13838588 15.40788456 34.5144079 16.03125 37.890625 C16.22811401 38.94179504 16.42497803 39.99296509 16.62780762 41.07598877 C16.89808777 42.54706085 16.89808777 42.54706085 17.17382812 44.04785156 C17.33371216 44.90944885 17.49359619 45.77104614 17.6583252 46.65875244 C18 49 18 49 18 53 C15.69 53 13.38 53 11 53 C10.34 48.71 9.68 44.42 9 40 C5.7 40 2.4 40 -1 40 C-1.33 43.96 -1.66 47.92 -2 52 C-7 54 -7 54 -10 53 C-7.6227352 39.09740326 -5.24239518 25.19499979 -2.75 11.3125 C-2.58725586 10.39388184 -2.42451172 9.47526367 -2.25683594 8.52880859 C-2.10504883 7.69043457 -1.95326172 6.85206055 -1.796875 5.98828125 C-1.66635742 5.26165283 -1.53583984 4.53502441 -1.40136719 3.78637695 C-1 2 -1 2 0 0 Z M4 13 C3.49078672 15.18537367 2.99305563 17.37342431 2.5 19.5625 C2.2215625 20.78066406 1.943125 21.99882812 1.65625 23.25390625 C1.01362446 26.92222707 0.88525177 30.28502603 1 34 C3.31 34 5.62 34 8 34 C7.01 27.07 6.02 20.14 5 13 C4.67 13 4.34 13 4 13 Z " fill="#F8914E" transform="translate(271,238)"/>
<path d="M0 0 C5.37599759 4.55217959 10.6044108 9.23960243 15.78100586 14.0168457 C16.63058868 14.8004245 17.48017151 15.5840033 18.35549927 16.3913269 C26.18749248 23.64137717 33.91509275 30.99864169 41.60509396 38.39866352 C46.7545135 43.34890056 51.93550493 48.25361918 57.21411133 53.06616211 C95.5934211 88.11856217 95.5934211 88.11856217 96.87722492 107.92030239 C97.0438417 116.75160882 95.93440573 125.39847067 94 134 C92.68 134 91.36 134 90 134 C90.20045425 133.03179321 90.40090851 132.06358643 90.60743713 131.06604004 C93.01219147 118.01037503 94.15594592 103.00176184 87.33535004 91.09368896 C82.19611111 83.6820044 76.03041957 77.18860779 69.65234375 70.84375 C69.17040951 70.36432575 68.68847528 69.8849015 68.19193697 69.39094925 C62.16697823 63.43059643 55.98195106 57.6507584 49.73434699 51.92530918 C44.34227155 46.97609287 39.06642239 41.909438 33.79500568 36.83238506 C22.9833951 26.42431993 12.04140533 16.16440162 1 6 C-0.12390359 6.95837094 -1.24710574 7.91756451 -2.37001038 8.87710571 C-2.99556855 9.41116846 -3.62112673 9.94523121 -4.26564121 10.49547768 C-6.16755614 12.14535168 -7.97429763 13.85976713 -9.74609375 15.6484375 C-10.35517578 16.26074219 -10.96425781 16.87304688 -11.59179688 17.50390625 C-12.20087891 18.12136719 -12.80996094 18.73882812 -13.4375 19.375 C-14.07365234 20.01566406 -14.70980469 20.65632813 -15.36523438 21.31640625 C-16.91250332 22.87530879 -18.45736492 24.43651416 -20 26 C-20.65283203 24.20336914 -20.65283203 24.20336914 -21 22 C-20.06201172 20.35717773 -20.06201172 20.35717773 -18.5546875 18.74609375 C-17.7188916 17.84093018 -17.7188916 17.84093018 -16.86621094 16.91748047 C-16.25036133 16.28471191 -15.63451172 15.65194336 -15 15 C-14.37125977 14.35047363 -13.74251953 13.70094727 -13.09472656 13.03173828 C-11.12190004 11.02405097 -9.12789529 9.04016502 -7.125 7.0625 C-6.43664062 6.37865234 -5.74828125 5.69480469 -5.0390625 4.99023438 C-3.36166359 3.32448407 -1.68151054 1.66159639 0 0 Z " fill="#EA955D" transform="translate(177,102)"/>
<path d="M0 0 C1 1 1 1 1.4375 3.3125 C1 6 1 6 -1.625 8.3125 C-5.14973053 10.07486527 -7.12808922 10.36875341 -11 10 C-8.52030941 12.7158516 -6.64792239 13.81245659 -2.90625 14.23828125 C6.90887159 14.54102039 14.86033512 10.99700136 23.125 5.953125 C25 5 25 5 28 5 C27.82421875 6.77734375 27.82421875 6.77734375 27 9 C18.87071896 15.62016757 8.3027181 19.38435358 -2.19140625 18.83203125 C-6.9169277 18.0958315 -10.39539999 17.28419112 -14 14 C-14.33 13.01 -14.66 12.02 -15 11 C-15.72703125 11.433125 -16.4540625 11.86625 -17.203125 12.3125 C-24.5527755 16.38307566 -30.57742654 18.31919825 -39 17 C-41.296875 16.1328125 -41.296875 16.1328125 -43 15 C-43.75 12.375 -43.75 12.375 -44 10 C-43.195625 10.2165625 -43.195625 10.2165625 -42.375 10.4375 C-37.59288532 11.57010611 -33.82230351 12.27649211 -29 11 C-29 11.66 -29 12.32 -29 13 C-22.86495451 10.12222093 -17.10532137 7.22384483 -11.6875 3.125 C-7.49918132 0.05806987 -5.13073186 -0.87331606 0 0 Z M-4 3 C-5.32 3.99 -6.64 4.98 -8 6 C-6.35 5.67 -4.7 5.34 -3 5 C-3.33 4.34 -3.66 3.68 -4 3 Z " fill="#EF7C2E" transform="translate(389,299)"/>
<path d="M0 0 C0.99 0.33 1.98 0.66 3 1 C3.90208123 3.7062437 4.12227599 5.23850986 4.11352539 8.01245117 C4.11341209 9.2133564 4.11341209 9.2133564 4.11329651 10.43852234 C4.10813522 11.29798965 4.10297394 12.15745697 4.09765625 13.04296875 C4.0962413 13.9265657 4.09482635 14.81016266 4.09336853 15.72053528 C4.08777069 18.54289128 4.07521861 21.36516797 4.0625 24.1875 C4.05748472 26.10091031 4.05292186 28.01432187 4.04882812 29.92773438 C4.03780197 34.61852014 4.02053883 39.30924663 4 44 C7.3 44 10.6 44 14 44 C14.33 38.39 14.66 32.78 15 27 C18 27 18 27 20 28 C20.08139142 30.39652528 20.14067009 32.79025436 20.1875 35.1875 C20.21263672 35.86103516 20.23777344 36.53457031 20.26367188 37.22851562 C20.32923345 41.70855667 19.77604854 44.46037634 17 48 C13.51703868 50.32197421 11.56903016 50.40590968 7.4375 50.6875 C6.28121094 50.77386719 5.12492187 50.86023438 3.93359375 50.94921875 C1 51 1 51 -1 50 C-1.02526838 43.03996553 -1.04283222 36.0799428 -1.05493164 29.11987305 C-1.05997341 26.75007688 -1.06680665 24.38028385 -1.07543945 22.01049805 C-1.0875119 18.61245961 -1.09322971 15.21446215 -1.09765625 11.81640625 C-1.10281754 10.74975235 -1.10797882 9.68309845 -1.11329651 8.5841217 C-1.11337204 7.60318039 -1.11344757 6.62223907 -1.11352539 5.61157227 C-1.115746 4.74331314 -1.11796661 3.87505402 -1.12025452 2.98048401 C-1 1 -1 1 0 0 Z " fill="#FC914C" transform="translate(352,241)"/>
<path d="M0 0 C1.32 0 2.64 0 4 0 C4.02527124 6.24795675 4.04283344 12.49590041 4.05493164 18.74389648 C4.05997298 20.87118014 4.06680591 22.99846031 4.07543945 25.12573242 C4.08751379 28.17627826 4.09323014 31.22677845 4.09765625 34.27734375 C4.10281754 35.23462875 4.10797882 36.19191376 4.11329651 37.1782074 C4.11337204 38.05904495 4.11344757 38.93988251 4.11352539 39.84741211 C4.115746 40.62684677 4.11796661 41.40628143 4.12025452 42.20933533 C4 44 4 44 3 45 C1.15238732 45.09648248 -0.6989581 45.12187318 -2.54908752 45.12025452 C-3.75368622 45.12162918 -4.95828491 45.12300385 -6.1993866 45.12442017 C-7.54641748 45.12088056 -8.89344812 45.11724575 -10.24047852 45.11352539 C-11.64947508 45.11324352 -13.05847179 45.11340125 -14.46746826 45.1139679 C-18.3040763 45.11425589 -22.14065334 45.10835894 -25.97725415 45.10139394 C-29.98246941 45.09516063 -33.9876853 45.09455662 -37.99290466 45.09336853 C-45.58252004 45.09025515 -53.17212108 45.08204167 -60.76173013 45.07201904 C-69.40003924 45.06085812 -78.03834901 45.05534751 -86.67666352 45.05032361 C-104.45111715 45.03985906 -122.22555742 45.02225948 -140 45 C-140 44.67 -140 44.34 -140 44 C-94.79 43.67 -49.58 43.34 -3 43 C-34.68 42.505 -34.68 42.505 -67 42 C-67 41.67 -67 41.34 -67 41 C-44.89 41 -22.78 41 0 41 C0 27.47 0 13.94 0 0 Z " fill="#DE9466" transform="translate(267,324)"/>
<path d="M0 0 C1.68242658 0.04238602 3.36459189 0.09606607 5.04638672 0.15869141 C5.93139862 0.18371735 6.81641052 0.20874329 7.72824097 0.23452759 C10.56123477 0.31684846 13.3935439 0.41339067 16.22607422 0.51025391 C18.14401479 0.56848115 20.06198365 0.62578468 21.97998047 0.68212891 C26.68755285 0.82070679 31.39393136 0.97849037 36.10107422 1.13525391 C36.10107422 10.37525391 36.10107422 19.61525391 36.10107422 29.13525391 C35.77107422 29.13525391 35.44107422 29.13525391 35.10107422 29.13525391 C34.77107422 33.42525391 34.44107422 37.71525391 34.10107422 42.13525391 C33.77107422 42.13525391 33.44107422 42.13525391 33.10107422 42.13525391 C32.27405698 29.77429989 32.00860922 17.52556321 32.10107422 5.13525391 C21.21107422 4.80525391 10.32107422 4.47525391 -0.89892578 4.13525391 C-0.89892578 23.60525391 -0.89892578 43.07525391 -0.89892578 63.13525391 C-4.16175469 59.87242499 -4.27532353 59.65374548 -4.33129883 55.38842773 C-4.36099007 53.94727348 -4.36099007 53.94727348 -4.39128113 52.477005 C-4.39767105 51.44254745 -4.40406097 50.4080899 -4.41064453 49.34228516 C-4.42859573 48.28111984 -4.44654694 47.21995453 -4.46504211 46.12663269 C-4.51927102 42.73371365 -4.55308168 39.34093629 -4.58642578 35.94775391 C-4.61958769 33.64890601 -4.65407628 31.35007684 -4.68994141 29.05126953 C-4.7750046 23.4127247 -4.84330112 17.77416181 -4.89892578 12.13525391 C-5.22892578 12.13525391 -5.55892578 12.13525391 -5.89892578 12.13525391 C-5.95288056 10.51061549 -5.99169773 8.8854685 -6.02392578 7.26025391 C-6.04712891 6.35533203 -6.07033203 5.45041016 -6.09423828 4.51806641 C-5.73836918 0.1764634 -4.14573373 0.14381568 0 0 Z " fill="#F6924C" transform="translate(162.89892578125,301.86474609375)"/>
<path d="M0 0 C2.31 0 4.62 0 7 0 C7.05087056 6.42289839 7.0858051 12.84574446 7.10986328 19.26879883 C7.11989692 21.45208681 7.1335269 23.63536143 7.15087891 25.81860352 C7.17524313 28.96373805 7.18650971 32.10869429 7.1953125 35.25390625 C7.20563507 36.2239711 7.21595764 37.19403595 7.22659302 38.1934967 C7.22746249 43.49120148 7.0092056 48.05795524 5 53 C3.515 53.495 3.515 53.495 2 54 C1.34 53.67 0.68 53.34 0 53 C0 35.51 0 18.02 0 0 Z " fill="#F69253" transform="translate(234,238)"/>
<path d="M0 0 C0.66 0 1.32 0 2 0 C2 55.77 2 111.54 2 169 C1.34 168.67 0.68 168.34 0 168 C-0.15378999 146.39086876 -0.30182627 124.78170499 -0.4429636 103.17248726 C-0.50862721 93.1395474 -0.57619224 83.10662701 -0.64819336 73.07373047 C-0.71092561 64.33172554 -0.77013124 55.58970515 -0.82505554 46.84764755 C-0.85427696 42.21640315 -0.8852958 37.58518616 -0.92053413 32.95398331 C-0.95361542 28.59896057 -0.98199735 24.24393302 -1.00670624 19.88885498 C-1.01663662 18.2868011 -1.02831407 16.68475699 -1.04183006 15.08272934 C-1.05996687 12.90265528 -1.07193144 10.72263379 -1.08229065 8.54251099 C-1.09058679 7.32021349 -1.09888292 6.09791599 -1.10743046 4.83857918 C-1 2 -1 2 0 0 Z " fill="#FC934C" transform="translate(87,194)"/>
<path d="M0 0 C0.66 0.33 1.32 0.66 2 1 C0.79367548 4.43338516 -0.38477184 6.50364585 -3 9 C-3 9.66 -3 10.32 -3 11 C-1.68481923 12.33687435 -1.68481923 12.33687435 0.125 13.76171875 C6.10158638 18.84629698 11.59457131 24.40853224 17.13916016 29.95385742 C19.01837639 31.83085469 20.90549623 33.69966889 22.79296875 35.56835938 C23.98746644 36.7599284 25.18149464 37.95196829 26.375 39.14453125 C26.94049561 39.70284134 27.50599121 40.26115143 28.08862305 40.83638 C32 44.77113553 32 44.77113553 32 47 C32.556875 47.20625 33.11375 47.4125 33.6875 47.625 C36.92501302 49.55000774 38.68231141 52.03850902 41 55 C33.93841818 55 28.33652193 48.68678554 23.6048584 43.99604797 C22.85869263 43.24067245 22.11252686 42.48529694 21.34375 41.70703125 C20.55601196 40.91979172 19.76827393 40.13255219 18.95666504 39.32145691 C17.30604049 37.66850508 15.65907528 36.01189168 14.015625 34.35180664 C11.48866207 31.80105533 8.9484333 29.26408886 6.40625 26.72851562 C4.80128645 25.11798123 3.19709165 23.50668031 1.59375 21.89453125 C0.83139038 21.13308304 0.06903076 20.37163483 -0.71643066 19.58711243 C-1.4113562 18.88265488 -2.10628174 18.17819733 -2.82226562 17.45239258 C-3.43767212 16.83237869 -4.05307861 16.21236481 -4.68713379 15.57356262 C-6 14 -6 14 -6 12 C-7.32 11.67 -8.64 11.34 -10 11 C-10.33 9.35 -10.66 7.7 -11 6 C-10.29875 6.12375 -9.5975 6.2475 -8.875 6.375 C-4.60815815 5.81845541 -2.72939054 3.15146124 0 0 Z " fill="#E8915B" transform="translate(155,124)"/>
<path d="M0 0 C0.33 0 0.66 0 1 0 C1 37.95 1 75.9 1 115 C1.66 115.33 2.32 115.66 3 116 C2.505 116.99 2.505 116.99 2 118 C1.01 118 0.02 118 -1 118 C-1.02332961 102.76236936 -1.04097948 87.52473954 -1.05181217 72.28709507 C-1.056975 65.21246813 -1.06401744 58.13785226 -1.07543945 51.06323242 C-1.08644681 44.24221122 -1.09227618 37.42120156 -1.09487724 30.60017204 C-1.09673205 27.99133052 -1.1003537 25.38248967 -1.10573006 22.77365303 C-1.11293643 19.13367448 -1.11399111 15.49374425 -1.11352539 11.85375977 C-1.11712067 10.76331863 -1.12071594 9.6728775 -1.12442017 8.5493927 C-1.1230455 7.56356201 -1.12167084 6.57773132 -1.12025452 5.56202698 C-1.12117631 4.70015054 -1.1220981 3.8382741 -1.12304783 2.95028019 C-1 1 -1 1 0 0 Z " fill="#FB904A" transform="translate(128,250)"/>
<path d="M0 0 C2.97 0 5.94 0 9 0 C10.28673466 6.90418882 11.56791048 13.80939239 12.84521484 20.71533203 C13.28045573 23.06485384 13.71697171 25.4141398 14.15478516 27.76318359 C14.78362513 31.13838588 15.40788456 34.5144079 16.03125 37.890625 C16.22811401 38.94179504 16.42497803 39.99296509 16.62780762 41.07598877 C16.89808777 42.54706085 16.89808777 42.54706085 17.17382812 44.04785156 C17.33371216 44.90944885 17.49359619 45.77104614 17.6583252 46.65875244 C18 49 18 49 18 53 C15.69 53 13.38 53 11 53 C10.34 48.71 9.68 44.42 9 40 C9.99 40.66 10.98 41.32 12 42 C13.19695276 41.02089415 13.19695276 41.02089415 13.1328125 39.1875 C13.12894531 38.1046875 13.12894531 38.1046875 13.125 37 C13.12757813 36.278125 13.13015625 35.55625 13.1328125 34.8125 C13.19695276 32.97910585 13.19695276 32.97910585 12 32 C11.92820036 30.48071962 11.91607993 28.95832518 11.9375 27.4375 C11.94652344 26.61121094 11.95554687 25.78492188 11.96484375 24.93359375 C11.97644531 24.29550781 11.98804688 23.65742188 12 23 C11.01 22.67 10.02 22.34 9 22 C8.67 24.97 8.34 27.94 8 31 C7.67 31 7.34 31 7 31 C6.34 26.05 5.68 21.1 5 16 C5.99 16 6.98 16 8 16 C8.66 14.68 9.32 13.36 10 12 C9.01 11.67 8.02 11.34 7 11 C7 7.7 7 4.4 7 1 C5.35 1 3.7 1 2 1 C1.73445313 2.25296875 1.46890625 3.5059375 1.1953125 4.796875 C0.83882441 6.44797774 0.48203794 8.09901607 0.125 9.75 C-0.04902344 10.575 -0.22304688 11.4 -0.40234375 12.25 C-0.57636719 13.04921875 -0.75039063 13.8484375 -0.9296875 14.671875 C-1.08679199 15.4050293 -1.24389648 16.13818359 -1.40576172 16.89355469 C-2.02941889 19.10428356 -2.91143399 20.98236484 -4 23 C-3.48400816 15.1177798 -1.9078547 7.65541695 0 0 Z " fill="#EE9358" transform="translate(271,238)"/>
<path d="M0 0 C0.33 0 0.66 0 1 0 C1.01030746 0.60499329 1.02061493 1.20998657 1.03123474 1.83331299 C1.13937584 8.12742758 1.25396779 14.42140123 1.37231445 20.71533203 C1.41563886 23.0645859 1.45731573 25.41387075 1.49731445 27.76318359 C1.55507715 31.1390924 1.61875468 34.51484561 1.68359375 37.890625 C1.70030624 38.94179504 1.71701874 39.99296509 1.73423767 41.07598877 C1.75418289 42.05670349 1.77412811 43.03741821 1.79467773 44.04785156 C1.81799416 45.3402475 1.81799416 45.3402475 1.84178162 46.65875244 C1.95147814 49.30619976 1.95147814 49.30619976 3 53 C14.22 53 25.44 53 37 53 C37 53.33 37 53.66 37 54 C35.19402344 54.09087891 35.19402344 54.09087891 33.3515625 54.18359375 C31.77602923 54.26799732 30.20050904 54.35264541 28.625 54.4375 C27.8309375 54.47681641 27.036875 54.51613281 26.21875 54.55664062 C21.97398779 54.68893404 21.97398779 54.68893404 18 56 C16.51899189 56.08963847 15.03400576 56.11757925 13.55029297 56.11352539 C12.62948944 56.11344986 11.70868591 56.11337433 10.75997925 56.11329651 C9.26617233 56.10555458 9.26617233 56.10555458 7.7421875 56.09765625 C6.72399933 56.0962413 5.70581116 56.09482635 4.6567688 56.09336853 C1.39614965 56.087759 -1.86440151 56.07520488 -5.125 56.0625 C-7.33203026 56.05748623 -9.53906159 56.05292311 -11.74609375 56.04882812 C-17.16408581 56.03778648 -22.58203805 56.02103905 -28 56 C-27.67 55.01 -27.34 54.02 -27 53 C-18.09 53 -9.18 53 0 53 C0 35.51 0 18.02 0 0 Z " fill="#E8925C" transform="translate(158,312)"/>
<path d="M0 0 C0.33 0.66 0.66 1.32 1 2 C1.66 2.33 2.32 2.66 3 3 C2.18818425 3.67713893 1.3763685 4.35427786 0.53995228 5.05193615 C-2.61242123 8.71082316 -2.62885482 10.39693021 -2.63923645 15.16902161 C-2.64759213 15.87974829 -2.6559478 16.59047497 -2.66455668 17.32273883 C-2.68646189 19.69849019 -2.67288864 22.072692 -2.65942383 24.44848633 C-2.66787771 26.15364759 -2.67852213 27.85879919 -2.69119263 29.56393433 C-2.71935734 34.18965827 -2.71686414 38.81491879 -2.70889878 43.44070268 C-2.70577556 48.27610518 -2.73080268 53.11135962 -2.75285339 57.94670105 C-2.79032046 67.10158857 -2.80244296 76.25632753 -2.8054778 85.41128415 C-2.81016573 95.83448989 -2.84308056 106.25754655 -2.87837565 116.68068659 C-2.95034259 138.12044077 -2.98683211 159.56013439 -3 181 C-3.99 181 -4.98 181 -6 181 C-6 179.35 -6 177.7 -6 176 C-5.67 176 -5.34 176 -5 176 C-4.67 120.56 -4.34 65.12 -4 8 C-4.66 8 -5.32 8 -6 8 C-4.55746343 4.63408134 -2.66735273 2.48952921 0 0 Z " fill="#E99A65" transform="translate(93,186)"/>
<path d="M0 0 C0.66 0.33 1.32 0.66 2 1 C2.33 25.75 2.66 50.5 3 76 C1.02 76.495 1.02 76.495 -1 77 C-0.67 51.59 -0.34 26.18 0 0 Z " fill="#FC8F4A" transform="translate(219,205)"/>
<path d="M0 0 C1.98 0.495 1.98 0.495 4 1 C4 21.13 4 41.26 4 62 C0.73717109 58.73717109 0.62360225 58.51849158 0.56762695 54.25317383 C0.53793571 52.81201958 0.53793571 52.81201958 0.50764465 51.3417511 C0.50125473 50.30729355 0.49486481 49.272836 0.48828125 48.20703125 C0.47033005 47.14586594 0.45237885 46.08470062 0.43388367 44.99137878 C0.37965476 41.59845975 0.3458441 38.20568238 0.3125 34.8125 C0.2793381 32.5136521 0.2448495 30.21482294 0.20898438 27.91601562 C0.12392118 22.27747079 0.05562466 16.6389079 0 11 C-0.33 11 -0.66 11 -1 11 C-1.02688151 9.35425434 -1.04634123 7.70838587 -1.0625 6.0625 C-1.07410156 5.14597656 -1.08570313 4.22945313 -1.09765625 3.28515625 C-1 1 -1 1 0 0 Z " fill="#FD9648" transform="translate(158,303)"/>
<path d="M0 0 C0.99 0.33 1.98 0.66 3 1 C3 10.9 3 20.8 3 31 C2.34 31.33 1.68 31.66 1 32 C0.34 31.67 -0.32 31.34 -1 31 C-1.02465622 26.74585377 -1.04283899 22.49174502 -1.05493164 18.23754883 C-1.05997101 16.78929927 -1.06680253 15.34105483 -1.07543945 13.89282227 C-1.08752247 11.81525412 -1.09323211 9.73775303 -1.09765625 7.66015625 C-1.10289307 6.40855713 -1.10812988 5.15695801 -1.11352539 3.86743164 C-1 1 -1 1 0 0 Z " fill="#FD914B" transform="translate(304,260)"/>
<path d="M0 0 C0.33 0.66 0.66 1.32 1 2 C1.99 2 2.98 2 4 2 C4 9.26 4 16.52 4 24 C2.35 24 0.7 24 -1 24 C-1.02909763 20.75001888 -1.04683161 17.50007143 -1.0625 14.25 C-1.07087891 13.32960938 -1.07925781 12.40921875 -1.08789062 11.4609375 C-1.09111328 10.57148438 -1.09433594 9.68203125 -1.09765625 8.765625 C-1.10289307 7.94868164 -1.10812988 7.13173828 -1.11352539 6.29003906 C-1.00299021 4.06031865 -0.62055567 2.13866245 0 0 Z " fill="#FB914E" transform="translate(329,267)"/>
<path d="M0 0 C4.554787 3.80014774 8.95279259 7.65665546 13 12 C13 12.66 13 13.32 13 14 C13.556875 14.20625 14.11375 14.4125 14.6875 14.625 C17.92501302 16.55000774 19.68231141 19.03850902 22 22 C15.28263629 22 9.8915809 16.22791465 5.34765625 11.74609375 C3.86254392 9.82190473 3.54766989 8.33376448 3 6 C2.34 5.67 1.68 5.34 1 5 C0.375 2.4375 0.375 2.4375 0 0 Z " fill="#F0A548" transform="translate(174,157)"/>
<path d="M0 0 C1.05960938 0.40798828 1.05960938 0.40798828 2.140625 0.82421875 C-3.859375 6.82421875 -9.859375 12.82421875 -15.859375 18.82421875 C-16.189375 17.83421875 -16.519375 16.84421875 -16.859375 15.82421875 C-16.199375 15.49421875 -15.539375 15.16421875 -14.859375 14.82421875 C-14.71242187 13.98310547 -14.71242187 13.98310547 -14.5625 13.125 C-13.50512268 9.66502644 -11.10246003 7.51456782 -8.609375 5.01171875 C-8.13113281 4.49673828 -7.65289062 3.98175781 -7.16015625 3.45117188 C-3.53581778 -0.21736585 -3.53581778 -0.21736585 0 0 Z " fill="#EC925A" transform="translate(146.859375,135.17578125)"/>
<path d="M0 0 C0.33 0 0.66 0 1 0 C1 9.24 1 18.48 1 28 C0.67 28 0.34 28 0 28 C-0.33 32.29 -0.66 36.58 -1 41 C-1.33 41 -1.66 41 -2 41 C-2.82637424 28.64865646 -3.12350504 16.3779494 -3 4 C-2.67 4 -2.34 4 -2 4 C-1.67 8.62 -1.34 13.24 -1 18 C-0.505 9.09 -0.505 9.09 0 0 Z " fill="#E69463" transform="translate(198,303)"/>
<path d="M0 0 C2.0352034 4.07040679 2.42523595 7.08537087 2.625 11.5 C2.66294678 12.20253906 2.70089355 12.90507812 2.73999023 13.62890625 C3.04631403 19.75260368 3.10449605 25.86956497 3 32 C1.515 32.495 1.515 32.495 0 33 C0 22.11 0 11.22 0 0 Z " fill="#FDA140" transform="translate(197,327)"/>
<path d="M0 0 C1.875 0.125 1.875 0.125 4 1 C5.25 4.0625 5.25 4.0625 6 7 C4.8553125 7.6496875 4.8553125 7.6496875 3.6875 8.3125 C1.41906232 9.73686785 -0.2199723 11.03260097 -2 13 C-3.625 9.75 -3.625 9.75 -5 6 C-4.1875 3.5625 -4.1875 3.5625 -3 2 C-2.34 2 -1.68 2 -1 2 C-0.67 1.34 -0.34 0.68 0 0 Z " fill="#F68336" transform="translate(247,283)"/>
<path d="M0 0 C0.33 0 0.66 0 1 0 C1.33 16.17 1.66 32.34 2 49 C2.33 49 2.66 49 3 49 C3 50.98 3 52.96 3 55 C2.01 55 1.02 55 0 55 C0 36.85 0 18.7 0 0 Z " fill="#F59256" transform="translate(158,312)"/>
<path d="M0 0 C0.33 0 0.66 0 1 0 C1 5.28 1 10.56 1 16 C2.98 15.67 4.96 15.34 7 15 C6.67 15.66 6.34 16.32 6 17 C4.68 17 3.36 17 2 17 C2 17.66 2 18.32 2 19 C3.32 19 4.64 19 6 19 C6 19.66 6 20.32 6 21 C4.35 21 2.7 21 1 21 C1 26.94 1 32.88 1 39 C0.67 39 0.34 39 0 39 C0 26.13 0 13.26 0 0 Z " fill="#E49664" transform="translate(356,246)"/>
<path d="M0 0 C0.99 0 1.98 0 3 0 C3 3.96 3 7.92 3 12 C0 11 -3 10 -6 9 C-5.54625 8.608125 -5.0925 8.21625 -4.625 7.8125 C-2.72197695 5.68989737 -1.9789061 3.65703083 -1 1 C-0.67 0.67 -0.34 0.34 0 0 Z " fill="#FA711E" transform="translate(317,302)"/>
<path d="M0 0 C0.99 0 1.98 0 3 0 C3 2.33333333 3 4.66666667 3 7 C3.66 7 4.32 7 5 7 C4.67 9.31 4.34 11.62 4 14 C2.35 13.67 0.7 13.34 -1 13 C-1.0272415 11.58344207 -1.04650467 10.16672955 -1.0625 8.75 C-1.07410156 7.96109375 -1.08570313 7.1721875 -1.09765625 6.359375 C-1.00385306 4.09308998 -0.63241063 2.1711105 0 0 Z " fill="#F6762B" transform="translate(240,286)"/>
<path d="M0 0 C1.32 1.65 2.64 3.3 4 5 C5.98 4.34 7.96 3.68 10 3 C10 4.32 10 5.64 10 7 C9.34 7 8.68 7 8 7 C7.67 8.65 7.34 10.3 7 12 C5.35 12 3.7 12 2 12 C2.66 10.35 3.32 8.7 4 7 C2.68 7.33 1.36 7.66 0 8 C0 5.36 0 2.72 0 0 Z " fill="#FC934B" transform="translate(313,264)"/>
<path d="M0 0 C2.97 0 5.94 0 9 0 C9.33 2.64 9.66 5.28 10 8 C7.64046906 5.64046906 7.50858587 4.22104383 7 1 C5.35 1 3.7 1 2 1 C1.73445313 2.25296875 1.46890625 3.5059375 1.1953125 4.796875 C0.83882441 6.44797774 0.48203794 8.09901607 0.125 9.75 C-0.04902344 10.575 -0.22304688 11.4 -0.40234375 12.25 C-0.57636719 13.04921875 -0.75039063 13.8484375 -0.9296875 14.671875 C-1.08679199 15.4050293 -1.24389648 16.13818359 -1.40576172 16.89355469 C-2.02941889 19.10428356 -2.91143399 20.98236484 -4 23 C-3.48400816 15.1177798 -1.9078547 7.65541695 0 0 Z " fill="#E79561" transform="translate(271,238)"/>
<path d="M0 0 C3.74633486 1.24877829 5.41041797 3.06047445 8 6 C8 6.99 8 7.98 8 9 C7.21625 9.0825 6.4325 9.165 5.625 9.25 C2.84757889 9.71229528 2.84757889 9.71229528 1.8359375 12.046875 C1.56007812 12.69140625 1.28421875 13.3359375 1 14 C0.63794536 12.04310963 0.28558579 10.08442332 -0.0625 8.125 C-0.25972656 7.03445312 -0.45695312 5.94390625 -0.66015625 4.8203125 C-1 2 -1 2 0 0 Z " fill="#F7A84D" transform="translate(127,111)"/>
<path d="M0 0 C-0.36834013 2.65204896 -0.6867691 3.73840056 -2.77734375 5.484375 C-3.49019531 5.90203125 -4.20304687 6.3196875 -4.9375 6.75 C-6.00291016 7.39195312 -6.00291016 7.39195312 -7.08984375 8.046875 C-9 9 -9 9 -11 9 C-11 8.34 -11 7.68 -11 7 C-11.99 6.67 -12.98 6.34 -14 6 C-12.2335343 4.9923048 -10.46166177 3.99408286 -8.6875 3 C-7.20830078 2.1646875 -7.20830078 2.1646875 -5.69921875 1.3125 C-3 0 -3 0 0 0 Z " fill="#E47E39" transform="translate(417,304)"/>
<path d="M0 0 C0.33 3.3 0.66 6.6 1 10 C-0.65 10 -2.3 10 -4 10 C-5 9 -5 9 -5.25 6.125 C-5 3 -5 3 -3.625 1.125 C-2 0 -2 0 0 0 Z " fill="#F59251" transform="translate(288,281)"/>
<path d="M0 0 C1.98 0.495 1.98 0.495 4 1 C4 7.6 4 14.2 4 21 C3.67 21 3.34 21 3 21 C3 15.39 3 9.78 3 4 C2.34 4 1.68 4 1 4 C0.67 6.31 0.34 8.62 0 11 C-0.33 11 -0.66 11 -1 11 C-1.02688151 9.35425434 -1.04634123 7.70838587 -1.0625 6.0625 C-1.07410156 5.14597656 -1.08570313 4.22945313 -1.09765625 3.28515625 C-1 1 -1 1 0 0 Z " fill="#FCD522" transform="translate(158,303)"/>
<path d="M0 0 C2.54110939 0.34339316 4.54461398 0.72351563 6.75 2.0625 C8.75905654 5.17653764 8.69965807 8.33582847 9 12 C8.34 12 7.68 12 7 12 C4.91664224 8.87496336 4 6.72863529 4 3 C2.68 2.34 1.36 1.68 0 1 C0 0.67 0 0.34 0 0 Z M4 9 C4.33 9 4.66 9 5 9 C5 10.65 5 12.3 5 14 C4.01 14.495 4.01 14.495 3 15 C2.957279 13.33388095 2.95936168 11.66617115 3 10 C3.33 9.67 3.66 9.34 4 9 Z " fill="#ED945E" transform="translate(362,239)"/>
<path d="M0 0 C0.33 0.66 0.66 1.32 1 2 C1.66 2.33 2.32 2.66 3 3 C1.7934375 3.86625 1.7934375 3.86625 0.5625 4.75 C-3.55042128 8.73511864 -2.90575435 14.62799777 -3 20 C-3.33 20 -3.66 20 -4 20 C-4 16.04 -4 12.08 -4 8 C-4.66 8 -5.32 8 -6 8 C-4.55746343 4.63408134 -2.66735273 2.48952921 0 0 Z " fill="#ED955D" transform="translate(93,186)"/>
<path d="M0 0 C3.14737182 0.69941596 6.02588876 1.76078698 9 3 C8.01 3.66 7.02 4.32 6 5 C9.63 5.33 13.26 5.66 17 6 C17 6.33 17 6.66 17 7 C15.08364783 7.05423638 13.16685075 7.09289963 11.25 7.125 C9.64898437 7.15980469 9.64898437 7.15980469 8.015625 7.1953125 C5.04870532 7.00315449 3.42137484 6.69039376 1 5 C0.25 2.375 0.25 2.375 0 0 Z " fill="#EB7E37" transform="translate(345,309)"/>
<path d="M0 0 C0.33 0 0.66 0 1 0 C1.0814222 2.22855574 1.13938079 4.45797655 1.1875 6.6875 C1.22230469 7.92886719 1.25710938 9.17023438 1.29296875 10.44921875 C0.98100759 14.230188 0.31192603 16.03375528 -2 19 C-4.6875 20.3125 -4.6875 20.3125 -7 21 C-6.34 19.02 -5.68 17.04 -5 15 C-4.34 15.33 -3.68 15.66 -3 16 C-1.35199144 12.33552568 -0.66419027 9.18796534 -0.375 5.1875 C-0.26285156 3.72376953 -0.26285156 3.72376953 -0.1484375 2.23046875 C-0.09945313 1.49441406 -0.05046875 0.75835937 0 0 Z " fill="#F0955B" transform="translate(371,270)"/>
<path d="M0 0 C2.125 0.9375 2.125 0.9375 4 2 C3.67 2.66 3.34 3.32 3 4 C2.34 3.67 1.68 3.34 1 3 C0.93941406 4.05960937 0.87882812 5.11921875 0.81640625 6.2109375 C0.73199873 7.59897221 0.64735083 8.98699232 0.5625 10.375 C0.52318359 11.07367188 0.48386719 11.77234375 0.44335938 12.4921875 C0.11328125 17.7734375 0.11328125 17.7734375 -1 20 C-1.66 20 -2.32 20 -3 20 C-2.83628906 19.32582031 -2.67257812 18.65164063 -2.50390625 17.95703125 C-1.9124642 14.48632094 -1.90460954 11.20677876 -1.9375 7.6875 C-1.95103516 5.80611328 -1.95103516 5.80611328 -1.96484375 3.88671875 C-1.97644531 2.93410156 -1.98804688 1.98148437 -2 1 C-1.34 0.67 -0.68 0.34 0 0 Z " fill="#ED935B" transform="translate(367,265)"/>
<path d="M0 0 C0.33 0 0.66 0 1 0 C1 9.57 1 19.14 1 29 C0.01 29 -0.98 29 -2 29 C-2 27.35 -2 25.7 -2 24 C-1.67 24 -1.34 24 -1 24 C-0.67 16.08 -0.34 8.16 0 0 Z " fill="#F0965C" transform="translate(89,338)"/>
<path d="M0 0 C0 0.99 0 1.98 0 3 C1.32 3.33 2.64 3.66 4 4 C1.35541621 5.32229189 -0.67761301 5.09677194 -3.625 5.0625 C-4.62789063 5.05347656 -5.63078125 5.04445313 -6.6640625 5.03515625 C-7.43492187 5.02355469 -8.20578125 5.01195312 -9 5 C-9.33 4.34 -9.66 3.68 -10 3 C-8.68 3 -7.36 3 -6 3 C-5.67 2.34 -5.34 1.68 -5 1 C-2 0 -2 0 0 0 Z " fill="#FA7923" transform="translate(360,310)"/>
<path d="M0 0 C0.56203125 0.36867188 1.1240625 0.73734375 1.703125 1.1171875 C-0.84292802 3.11765773 -3.2633386 4.94291535 -6.296875 6.1171875 C-9.296875 5.1171875 -9.296875 5.1171875 -11.296875 3.1171875 C-9.88995893 2.38967962 -8.47081478 1.68578397 -7.046875 0.9921875 C-6.25796875 0.59773438 -5.4690625 0.20328125 -4.65625 -0.203125 C-2.296875 -0.8828125 -2.296875 -0.8828125 0 0 Z " fill="#E28142" transform="translate(371.296875,308.8828125)"/>
<path d="M0 0 C4.81430721 -0.56638908 7.20307814 1.17438373 11 4 C10.34 5.98 9.68 7.96 9 10 C8.7525 9.401875 8.505 8.80375 8.25 8.1875 C6.22423998 4.64241996 3.82005844 3.27335281 0 2 C0 1.34 0 0.68 0 0 Z " fill="#FC914C" transform="translate(357,239)"/>
<path d="M0 0 C0.6875 1.75 0.6875 1.75 1 4 C-0.25 6.25 -0.25 6.25 -2 8 C-2.99 8 -3.98 8 -5 8 C-5 7.34 -5 6.68 -5 6 C-5.66 6 -6.32 6 -7 6 C-6.34 4.68 -5.68 3.36 -5 2 C-4.01 2 -3.02 2 -2 2 C-1.34 1.34 -0.68 0.68 0 0 Z " fill="#F29158" transform="translate(370,255)"/>
<path d="M0 0 C7.48291572 6.15034169 7.48291572 6.15034169 10 10 C9.01 10.33 8.02 10.66 7 11 C2.125 6.375 2.125 6.375 1 3 C0.34 2.67 -0.32 2.34 -1 2 C-0.67 1.34 -0.34 0.68 0 0 Z " fill="#F8B23B" transform="translate(164,147)"/>
<path d="M0 0 C-0.598125 0.0825 -1.19625 0.165 -1.8125 0.25 C-4.6255498 1.21447422 -5.37591519 2.56387278 -7 5 C-7.66 5.66 -8.32 6.32 -9 7 C-9 6.01 -9 5.02 -9 4 C-10.32 3.67 -11.64 3.34 -13 3 C-8.30609874 -0.77801809 -5.8692391 -1.40861738 0 0 Z " fill="#E67F3A" transform="translate(283,303)"/>
<path d="M0 0 C6.625 -0.125 6.625 -0.125 10 1 C10 1.99 10 2.98 10 4 C7.36 4 4.72 4 2 4 C1.34 2.68 0.68 1.36 0 0 Z " fill="#F57528" transform="translate(251,312)"/>
<path d="M0 0 C3.21524305 1.40844718 5.32183868 3.10344786 7.75 5.625 C8.67039063 6.57246094 8.67039063 6.57246094 9.609375 7.5390625 C10.29773438 8.26222656 10.29773438 8.26222656 11 9 C10.34 9.66 9.68 10.32 9 11 C7.5 9.625 7.5 9.625 6 8 C6 7.34 6 6.68 6 6 C5.071875 5.9071875 5.071875 5.9071875 4.125 5.8125 C2 5 2 5 0.75 2.4375 C0.5025 1.633125 0.255 0.82875 0 0 Z " fill="#F8B43D" transform="translate(153,137)"/>
<path d="M0 0 C2.97 0.495 2.97 0.495 6 1 C6 2.65 6 4.3 6 6 C7.32 6.33 8.64 6.66 10 7 C7 8 7 8 3.875 6.875 C1 5 1 5 0.125 2.3125 C0.08375 1.549375 0.0425 0.78625 0 0 Z " fill="#F99349" transform="translate(144,130)"/>
<path d="M0 0 C1.1725131 0.95117134 2.33787015 1.91117009 3.5 2.875 C4.47453125 3.67550781 4.47453125 3.67550781 5.46875 4.4921875 C5.9740625 4.98976562 6.479375 5.48734375 7 6 C7 6.66 7 7.32 7 8 C7.99 8.33 8.98 8.66 10 9 C9.34 9.66 8.68 10.32 8 11 C8 10.34 8 9.68 8 9 C7.1028125 8.8453125 7.1028125 8.8453125 6.1875 8.6875 C3.68741714 7.90175967 2.62464918 7.03081147 1 5 C1 4.34 1 3.68 1 3 C0.34 2.67 -0.32 2.34 -1 2 C-0.67 1.34 -0.34 0.68 0 0 Z " fill="#F7B33B" transform="translate(180,163)"/>
<path d="M0 0 C0.66 0.33 1.32 0.66 2 1 C0.70700306 3.88437779 -0.65941363 5.87219421 -3 8 C-3.33 7.34 -3.66 6.68 -4 6 C-4.99 6 -5.98 6 -7 6 C-4.69 4.02 -2.38 2.04 0 0 Z " fill="#E97B39" transform="translate(356,294)"/>
<path d="M0 0 C4.29 0 8.58 0 13 0 C12.67 0.66 12.34 1.32 12 2 C7.31090292 3.08209933 4.30902834 3.21980248 0 1 C0 0.67 0 0.34 0 0 Z " fill="#F77A28" transform="translate(383,315)"/>
<path d="M0 0 C0.33 0.66 0.66 1.32 1 2 C1.66 2.33 2.32 2.66 3 3 C0.69 5.31 -1.62 7.62 -4 10 C-4.33 9.01 -4.66 8.02 -5 7 C-4.34 6.67 -3.68 6.34 -3 6 C-2.65657551 4.66923011 -2.32380126 3.33568021 -2 2 C-1.34 1.34 -0.68 0.68 0 0 Z " fill="#E89564" transform="translate(135,144)"/>
<path d="M0 0 C0.763125 0.309375 1.52625 0.61875 2.3125 0.9375 C4.18789677 1.67893593 6.08684652 2.36228217 8 3 C9.1875 6.5625 9.1875 6.5625 10 10 C2.51708428 3.84965831 2.51708428 3.84965831 0 0 Z " fill="#E59260" transform="translate(188,176)"/>
<path d="M0 0 C0.99 0 1.98 0 3 0 C2.67 2.97 2.34 5.94 2 9 C1.34 7.68 0.68 6.36 0 5 C-0.66 4.67 -1.32 4.34 -2 4 C-1.34 2.68 -0.68 1.36 0 0 Z " fill="#ED7E38" transform="translate(317,302)"/>
<path d="M0 0 C0.33 0 0.66 0 1 0 C1 1.98 1 3.96 1 6 C2.32 6.66 3.64 7.32 5 8 C3.68 9.32 2.36 10.64 1 12 C1 10.68 1 9.36 1 8 C0.34 7.67 -0.32 7.34 -1 7 C-0.67 4.69 -0.34 2.38 0 0 Z " fill="#E97C37" transform="translate(238,293)"/>
<path d="M0 0 C2.64 0 5.28 0 8 0 C7.67 0.99 7.34 1.98 7 3 C5.02 3 3.04 3 1 3 C0.67 2.01 0.34 1.02 0 0 Z " fill="#F47826" transform="translate(321,315)"/>
<path d="M0 0 C0.33 0.66 0.66 1.32 1 2 C2.32 1.67 3.64 1.34 5 1 C3.02579865 3.52259061 2.03254358 3.9929808 -1.1875 4.6875 C-2.5796875 4.8421875 -2.5796875 4.8421875 -4 5 C-2.25 1.125 -2.25 1.125 0 0 Z " fill="#E88242" transform="translate(384,304)"/>
<path d="M0 0 C2.475 0.99 2.475 0.99 5 2 C4 5 4 5 2 6 C1.34 7.32 0.68 8.64 0 10 C0 6.7 0 3.4 0 0 Z " fill="#F8904B" transform="translate(128,115)"/>
<path d="M0 0 C-1.32 0.33 -2.64 0.66 -4 1 C-4 1.66 -4 2.32 -4 3 C-2.68 3 -1.36 3 0 3 C-0.33 3.66 -0.66 4.32 -1 5 C-2.65 5 -4.3 5 -6 5 C-6 4.34 -6 3.68 -6 3 C-6.66 2.67 -7.32 2.34 -8 2 C-4.77208445 -0.1519437 -3.71599191 -0.20086443 0 0 Z " fill="#E6803F" transform="translate(248,306)"/>
<path d="M0 0 C2.475 0.99 2.475 0.99 5 2 C4.67 3.32 4.34 4.64 4 6 C3.01 6 2.02 6 1 6 C0.67 4.02 0.34 2.04 0 0 Z " fill="#F87829" transform="translate(305,310)"/>
<path d="M0 0 C0.99 0.33 1.98 0.66 3 1 C3 2.32 3 3.64 3 5 C1.68 5 0.36 5 -1 5 C-0.67 3.35 -0.34 1.7 0 0 Z M-2 5 C-1.34 5.66 -0.68 6.32 0 7 C-0.66 7 -1.32 7 -2 7 C-2 6.34 -2 5.68 -2 5 Z " fill="#FBA342" transform="translate(355,285)"/>
<path d="M0 0 C0 0.66 0 1.32 0 2 C-1.8125 3.0625 -1.8125 3.0625 -4 4 C-7 3 -7 3 -9 1 C-5.94152152 0.45627049 -3.11227195 0 0 0 Z " fill="#EE7C34" transform="translate(369,311)"/>
<path d="M0 0 C1.485 0.99 1.485 0.99 3 2 C3.29296875 4.6015625 3.29296875 4.6015625 3.1875 7.625 C3.16042969 8.62789063 3.13335937 9.63078125 3.10546875 10.6640625 C3.07066406 11.43492187 3.03585937 12.20578125 3 13 C2.67 13 2.34 13 2 13 C2 10.03 2 7.06 2 4 C1.34 4 0.68 4 0 4 C0 2.68 0 1.36 0 0 Z " fill="#F39B51" transform="translate(281,257)"/>
<path d="M0 0 C1.65 0.99 3.3 1.98 5 3 C4.01 3.33 3.02 3.66 2 4 C2.33 4.66 2.66 5.32 3 6 C-0.875 4.25 -0.875 4.25 -2 2 C-1.34 2 -0.68 2 0 2 C0 1.34 0 0.68 0 0 Z " fill="#E38039" transform="translate(354,302)"/>
<path d="M0 0 C0.66 0.33 1.32 0.66 2 1 C1.67 2.32 1.34 3.64 1 5 C-0.65 4.67 -2.3 4.34 -4 4 C-2.68 2.68 -1.36 1.36 0 0 Z " fill="#E57D3A" transform="translate(382,299)"/>
<path d="M0 0 C0.99 0.33 1.98 0.66 3 1 C3.6875 3.0625 3.6875 3.0625 4 5 C3.01 5.33 2.02 5.66 1 6 C0.34 5.34 -0.32 4.68 -1 4 C-0.625 1.875 -0.625 1.875 0 0 Z " fill="#FB9643" transform="translate(263,286)"/>
<path d="M0 0 C1.65 0 3.3 0 5 0 C6.125 3.75 6.125 3.75 5 6 C3.35 4.02 1.7 2.04 0 0 Z " fill="#E98F5D" transform="translate(140,128)"/>
</svg>
