<?xml version="1.0" encoding="UTF-8"?>
<svg version="1.1" xmlns="http://www.w3.org/2000/svg" width="370" height="266">
<path d="M0 0 C122.1 0 244.2 0 370 0 C370 87.78 370 175.56 370 266 C247.9 266 125.8 266 0 266 C0 178.22 0 90.44 0 0 Z " fill="#FEFEFE" transform="translate(0,0)"/>
<path d="M0 0 C0 69.63 0 139.26 0 211 C-13.2 211 -26.4 211 -40 211 C-40 210.34 -40 209.68 -40 209 C-39.01 209 -38.02 209 -37 209 C-37.03318455 208.14158886 -37.06636909 207.28317772 -37.10055923 206.39875412 C-37.90195538 185.33433176 -38.49427656 164.27259196 -38.86523819 143.19604111 C-39.04950905 133.00150649 -39.30061545 122.81734413 -39.71582031 112.62939453 C-42.6810914 38.4721076 -42.6810914 38.4721076 -26.47193527 19.64455032 C-7.69237606 0 -7.69237606 0 0 0 Z " fill="#FEFEFE" transform="translate(40,55)"/>
<path d="M0 0 C2.4961041 1.00790222 3.99495404 2.27205427 5.97352982 4.09928131 C6.73630234 4.79867828 7.49907486 5.49807526 8.2849617 6.21866608 C9.52573975 7.3790036 9.52573975 7.3790036 10.79158401 8.56278229 C11.66998947 9.37489166 12.54839493 10.18700104 13.45341873 11.02371979 C21.596099 18.58590309 29.62214243 26.27222379 37.60791779 33.99963379 C42.96413513 39.17877483 48.35152686 44.31246625 53.84334183 49.34793854 C93.73185373 85.98242699 93.73185373 85.98242699 95.06703186 105.88166809 C95.23830185 114.68392687 94.09343048 123.28645661 92.0757637 131.83817291 C91.0857637 131.83817291 90.0957637 131.83817291 89.0757637 131.83817291 C89.27621796 130.86996613 89.47667221 129.90175934 89.68320084 128.90421295 C92.08795517 115.84854794 93.23170962 100.83993475 86.41111374 88.93186188 C81.27187482 81.52017731 75.10618327 75.0267807 68.72810745 68.68192291 C68.24617321 68.20249866 67.76423898 67.72307442 67.26770067 67.22912216 C61.24274193 61.26876934 55.05771476 55.48893132 48.81011069 49.76348209 C43.41803525 44.81426578 38.1421861 39.74761091 32.87076938 34.67055798 C22.05915881 24.26249284 11.11716903 14.00257453 0.0757637 3.83817291 C-1.03691892 4.78477 -2.14858273 5.73256473 -3.25982285 6.6808548 C-3.8789911 7.20852762 -4.49815935 7.73620045 -5.13609028 8.27986336 C-7.51950574 10.35693036 -9.75500302 12.55672242 -11.98283005 14.79911041 C-12.8626152 15.68211823 -13.74240036 16.56512604 -14.64884567 17.47489166 C-15.54409958 18.37852448 -16.43935349 19.28215729 -17.3617363 20.21317291 C-18.28406052 21.14000885 -19.20638474 22.06684479 -20.15665817 23.02176666 C-22.41482255 25.29163137 -24.67060571 27.56380829 -26.9242363 29.83817291 C-23.10377485 34.56860573 -19.14571951 38.53836467 -14.36808395 42.28592682 C43.28771319 88.70496189 43.28771319 88.70496189 46.86302567 116.79431915 C48.76398235 137.08606079 46.53436579 157.82082709 43.0757637 177.83817291 C42.0857637 177.83817291 41.0957637 177.83817291 40.0757637 177.83817291 C40.21423721 177.03704071 40.35271072 176.23590851 40.4953804 175.41049957 C42.19830705 165.00197607 43.25322912 154.61734902 43.8257637 144.08817291 C43.87209568 143.24371109 43.91842766 142.39924927 43.96616364 141.52919769 C45.03169543 118.7603765 41.40959628 101.49076246 26.09400177 84.09080505 C19.39030623 76.73982833 12.33145115 69.82401123 5.0132637 63.08817291 C4.20098816 62.34009872 3.38871262 61.59202454 2.55182266 60.82128143 C-7.65455377 51.47843144 -18.14133763 42.50753577 -28.9242363 33.83817291 C-36.20472386 37.26952763 -42.65086655 43.0065392 -46.9242363 49.83817291 C-49.31011925 56.56702981 -48.75914327 63.85533226 -48.60538864 70.88846588 C-48.61131288 72.97919987 -48.62340258 75.06992399 -48.64113998 77.16059113 C-48.67170287 82.79737073 -48.61676203 88.43036467 -48.54568052 94.06665564 C-48.48601598 99.97099047 -48.50605822 105.87506126 -48.51740646 111.77960968 C-48.52687315 122.94291184 -48.46534506 134.10463186 -48.37788546 145.26754963 C-48.2817466 157.98346198 -48.26539488 170.6990929 -48.2555244 183.4153192 C-48.23345688 209.55694983 -48.10907966 235.69723 -47.9242363 261.83817291 C-38.6842363 261.83817291 -29.4442363 261.83817291 -19.9242363 261.83817291 C-19.9242363 241.04817291 -19.9242363 220.25817291 -19.9242363 198.83817291 C-6.7242363 198.83817291 6.4757637 198.83817291 20.0757637 198.83817291 C21.22525064 218.3794509 21.22525064 218.3794509 21.17341995 227.56082916 C21.17241287 228.44798615 21.17140579 229.33514313 21.17036819 230.24918365 C21.1652574 233.46636048 21.15129983 236.68351844 21.1382637 239.90067291 C21.1176387 247.14004791 21.0970137 254.37942291 21.0757637 261.83817291 C43.8457637 261.83817291 66.6157637 261.83817291 90.0757637 261.83817291 C90.0757637 248.30817291 90.0757637 234.77817291 90.0757637 220.83817291 C90.7357637 220.83817291 91.3957637 220.83817291 92.0757637 220.83817291 C92.0757637 235.35817291 92.0757637 249.87817291 92.0757637 264.83817291 C44.8857637 264.83817291 -2.3042363 264.83817291 -50.9242363 264.83817291 C-51.2542363 195.53817291 -51.5842363 126.23817291 -51.9242363 54.83817291 C-85.06202743 82.59153984 -85.06202743 82.59153984 -91.29989529 115.49468517 C-91.23719614 117.05760811 -91.15170615 118.6198039 -91.04207993 120.18013763 C-90.96281604 121.97921563 -90.88552275 123.77838129 -90.80998421 125.57761955 C-90.76542398 126.48283403 -90.72086376 127.38804851 -90.67495322 128.32069373 C-90.47995638 133.07458418 -90.49157613 137.82868696 -90.4781456 142.58592987 C-90.42306564 151.53383324 -90.19128114 160.46738359 -89.89028531 169.41002828 C-89.55583285 179.61482681 -89.42691092 189.81930504 -89.31232011 200.02856767 C-89.07278739 220.97229274 -88.58464573 241.90375601 -87.9242363 262.83817291 C-88.9142363 262.83817291 -89.9042363 262.83817291 -90.9242363 262.83817291 C-91.84341408 240.82901034 -92.52680539 218.82308707 -92.944911 196.79849911 C-93.14440604 186.56608377 -93.41613619 176.34582677 -93.86637497 166.1211319 C-97.08373879 91.63567966 -97.08373879 91.63567966 -79.59731579 72.56047726 C-74.53947722 67.55164123 -69.07299234 63.40668086 -63.2535038 59.33398247 C-62.39654474 58.73337313 -61.53958569 58.13276379 -60.65665817 57.51395416 C-59.82396975 56.93364756 -58.99128132 56.35334095 -58.13335991 55.7554493 C-52.59805138 51.48585855 -50.64783383 47.8458893 -49.50474167 40.95094299 C-48.36947316 29.84550518 -49.13352329 18.83376455 -50.9242363 7.83817291 C-43.53862091 14.0937431 -43.53862091 14.0937431 -40.39689255 17.26786041 C-39.8329277 17.83504791 -39.26896286 18.40223541 -38.68790817 18.98661041 C-38.12652145 19.55637604 -37.56513474 20.12614166 -36.9867363 20.71317291 C-36.39827927 21.30614166 -35.80982224 21.89911041 -35.20353317 22.51004791 C-33.77475956 23.95043757 -32.34915498 25.39396962 -30.9242363 26.83817291 C-26.82175039 25.23022771 -24.17882405 22.26284177 -21.2054863 19.13895416 C-20.09784162 18.00116732 -18.98975544 16.86381015 -17.88126755 15.72684479 C-16.1446248 13.93425287 -14.41217589 12.13805814 -12.68741989 10.33402252 C-11.01695877 8.5912522 -9.33138798 6.86432389 -7.6429863 5.13895416 C-7.12933517 4.5932225 -6.61568405 4.04749084 -6.08646774 3.48522186 C-2.44653335 -0.20575195 -2.44653335 -0.20575195 0 0 Z " fill="#99B8B0" transform="translate(90.92423629760742,1.1618270874023438)"/>
<path d="M0 0 C11.55 0 23.1 0 35 0 C35.33 19.8 35.66 39.6 36 60 C36.99 60.495 36.99 60.495 38 61 C25.46 60.67 12.92 60.34 0 60 C0 40.2 0 20.4 0 0 Z " fill="#FDFEFE" transform="translate(74,203)"/>
<path d="M0 0 C1.98 0 3.96 0 6 0 C6.33 15.18 6.66 30.36 7 46 C7.99 44.02 8.98 42.04 10 40 C11.6875 38.125 11.6875 38.125 13 37 C14.32 37.66 15.64 38.32 17 39 C17 43.29 17 47.58 17 52 C15.515 52.495 15.515 52.495 14 53 C12.31926384 55.24388438 10.80220899 57.44844826 9.3125 59.8125 C8.89677734 60.44220703 8.48105469 61.07191406 8.05273438 61.72070312 C5.84965713 65.16821153 5 66.81161393 5 71 C5.556875 70.505 6.11375 70.01 6.6875 69.5 C9.51040091 67.66892914 10.69821765 67.35574979 14 68 C15.11375 69.2375 15.11375 69.2375 16.25 70.5 C19.07029801 73.06390728 19.60886029 73.45479408 23.1875 73.6875 C29.78804373 73.33429365 35.11713705 69.36115081 40.09375 65.28515625 C42 64 42 64 45.1875 64.25 C48 65 48 65 49 66 C49.04080783 67.99958364 49.04254356 70.00045254 49 72 C57.49086576 71.29038874 64.03047427 70.14116184 71.109375 65.2421875 C73 64 73 64 75 64 C74.39009109 67.55780196 73.4216319 70.6828589 72 74 C76.28722236 71.85638882 78.76433285 69.12619323 81.66796875 65.42578125 C82.10753906 64.95527344 82.54710937 64.48476562 83 64 C83.66 64 84.32 64 85 64 C85.06058594 64.71027344 85.12117188 65.42054688 85.18359375 66.15234375 C85.26738281 67.07144531 85.35117188 67.99054688 85.4375 68.9375 C85.55931641 70.31228516 85.55931641 70.31228516 85.68359375 71.71484375 C85.76044976 73.96159732 85.76044976 73.96159732 87 75 C98.81203481 75.96424774 106.4955278 69.1650995 115 62 C115.89332031 61.06929687 116.78664063 60.13859375 117.70703125 59.1796875 C120 57 120 57 123 57 C122.649375 57.5775 122.29875 58.155 121.9375 58.75 C120.84620354 60.90283382 120.84620354 60.90283382 121.125 63 C121.93072301 65.18539608 121.93072301 65.18539608 124.0625 67 C126 69 126 69 126 73 C132.78934631 71.27389501 137.82362692 68.32978432 143.30541992 64.04907227 C146.98928499 61.28660004 149.41073924 60.42886213 154 61 C155 62 155 62 155.0625 64.5625 C155.041875 65.366875 155.02125 66.17125 155 67 C151.14243493 69.15305957 148.44870215 70.39253254 144 70 C144.79117904 71.99983534 144.79117904 71.99983534 146 74 C155.79479548 77.26493183 165.04038381 74.3147947 174 70 C176.10851331 68.76179237 178.02278422 67.44283314 180 66 C180.66 66 181.32 66 182 66 C180.76961753 69.82020851 178.41973881 71.2984056 174.99731445 73.19799805 C165.64452717 77.97471494 157.4606958 79.64814821 147 78 C143.2539146 76.30838435 141.46548911 74.8635622 140 71 C139.31292969 71.34933594 138.62585938 71.69867188 137.91796875 72.05859375 C137.01691406 72.51363281 136.11585938 72.96867187 135.1875 73.4375 C134.29417969 73.88996094 133.40085937 74.34242188 132.48046875 74.80859375 C128.53808055 76.70218178 125.40404643 77.21053537 121.0625 77.3125 C120.02222656 77.34988281 118.98195313 77.38726562 117.91015625 77.42578125 C114.32523962 76.90127667 113.18102485 75.83270456 111 73 C111 72.34 111 71.68 111 71 C111.680625 71.33 112.36125 71.66 113.0625 72 C116.50840238 73.17307315 119.38397422 73.14180493 123 73 C122.62492618 70.28071483 122.15781339 69.15781339 120.1875 67.1875 C118.14125391 65.81066688 118.14125391 65.81066688 116.15625 66.1875 C113.35114067 67.24449772 111.5737538 68.84983366 109.3125 70.8125 C103.6674352 75.42968223 98.18032303 79.01983596 90.75 79.5625 C86.20689769 78.88103465 84.74935491 77.60852832 82 74 C82 73.34 82 72.68 82 72 C81.32904297 72.55880859 81.32904297 72.55880859 80.64453125 73.12890625 C75.64493997 77.04116638 75.64493997 77.04116638 72.0625 76.8125 C71.381875 76.544375 70.70125 76.27625 70 76 C69.67 74.35 69.34 72.7 69 71 C68.113125 71.474375 67.22625 71.94875 66.3125 72.4375 C60.79144084 75.04177319 56.21783576 75.06513627 50.20703125 74.83984375 C47.79061684 74.77333334 47.79061684 74.77333334 46 77 C40.76013514 77.55743243 40.76013514 77.55743243 38.125 75.625 C37 74 37 74 37 72 C36.45472656 72.3609375 35.90945312 72.721875 35.34765625 73.09375 C29.92721594 76.42940558 25.40189749 78.37448863 19 77 C15.9375 75.125 15.9375 75.125 14 73 C14 72.34 14 71.68 14 71 C8.95476127 72.29064247 6.54743851 74.26080805 3 78 C1.515 78.495 1.515 78.495 0 79 C-0.33859902 72.82903281 0.91660194 67.50666191 2.5 61.5625 C2.73847656 60.64017578 2.97695312 59.71785156 3.22265625 58.76757812 C3.80761228 56.50964784 4.40020296 54.25402453 5 52 C3.35 52 1.7 52 0 52 C0 34.84 0 17.68 0 0 Z " fill="#5E5E5E" transform="translate(147,136)"/>
<path d="M0 0 C12.86206897 0 12.86206897 0 17 3 C20.63067055 6.87271525 20.4875665 11.19857996 20.37109375 16.26171875 C19.82470054 20.2935255 18.34115111 22.70775626 16 26 C17.2375 27.11375 17.2375 27.11375 18.5 28.25 C21.82291161 32.21483771 21.58220487 36.15952419 21.359375 41.1484375 C20.91433144 44.67976137 20.11844887 47.12496225 18 50 C14 52 14 52 0 52 C0 34.84 0 17.68 0 0 Z " fill="#8EB0A7" transform="translate(264,136)"/>
<path d="M0 0 C3.3 0 6.6 0 10 0 C10.72005084 3.85801706 11.43180871 7.71746701 12.13623047 11.57836914 C12.49408732 13.53025012 12.85831893 15.4809589 13.22265625 17.43164062 C13.44824219 18.67236328 13.67382812 19.91308594 13.90625 21.19140625 C14.11572266 22.32779541 14.32519531 23.46418457 14.54101562 24.63500977 C15.01788263 28.1311044 15.07835485 31.47599077 15 35 C15.66 35 16.32 35 17 35 C16.96003906 33.93523437 16.92007813 32.87046875 16.87890625 31.7734375 C16.88018716 25.96068798 17.94201825 20.33610291 18.9375 14.625 C19.11990234 13.53316406 19.30230469 12.44132813 19.49023438 11.31640625 C20.85925752 3.28148496 20.85925752 3.28148496 22 1 C24.97 1 27.94 1 31 1 C31 17.83 31 34.66 31 52 C29.35 52 27.7 52 26 52 C25.505 31.21 25.505 31.21 25 10 C23.72737649 18.33122859 23.72737649 18.33122859 22.45727539 26.6628418 C22.21738892 28.22772339 22.21738892 28.22772339 21.97265625 29.82421875 C21.81031494 30.88729248 21.64797363 31.95036621 21.48071289 33.0456543 C21.04674793 35.71269846 20.54959617 38.35466745 20 41 C17.36 41 14.72 41 12 41 C10.35 30.77 8.7 20.54 7 10 C6.67 23.86 6.34 37.72 6 52 C4.02 52 2.04 52 0 52 C0 34.84 0 17.68 0 0 Z " fill="#90B2A9" transform="translate(215,136)"/>
<path d="M0 0 C2.64 0 5.28 0 8 0 C9.74772058 4.82225475 10.80070353 9.5912732 11.7265625 14.6171875 C11.87910492 15.43317413 12.03164734 16.24916077 12.18881226 17.08987427 C12.50862923 18.80901629 12.82618513 20.52858032 13.14160156 22.24853516 C13.62248552 24.86133797 14.11553254 27.47165081 14.609375 30.08203125 C14.92001618 31.76027888 15.22993572 33.43866027 15.5390625 35.1171875 C15.68590485 35.8882785 15.83274719 36.65936951 15.98403931 37.4538269 C16.87299866 42.37983363 17.13269354 46.99383477 17 52 C15.02 52 13.04 52 11 52 C9.89771304 47.59085217 9.92345464 43.51617599 10 39 C6.37 39 2.74 39 -1 39 C-1.66 43.29 -2.32 47.58 -3 52 C-4.98 52 -6.96 52 -9 52 C-8.44233286 41.85814027 -6.4298998 32.00987066 -4.5 22.0625 C-4.17532161 20.36402009 -3.85109952 18.66545289 -3.52734375 16.96679688 C-1.10111746 4.29600962 -1.10111746 4.29600962 0 0 Z " fill="#8FB1A8" transform="translate(184,136)"/>
<path d="M0 0 C1.65 0 3.3 0 5 0 C5.01458252 1.24612061 5.02916504 2.49224121 5.04418945 3.77612305 C5.102243 8.40759712 5.17947576 13.03858862 5.26245117 17.66967773 C5.29566727 19.67252764 5.32370952 21.6754704 5.34643555 23.6784668 C5.38004234 26.56078594 5.43236148 29.44225668 5.48828125 32.32421875 C5.49467117 33.21711105 5.5010611 34.11000336 5.50764465 35.029953 C5.62107057 39.84621203 5.93641267 43.0447982 9 47 C11.44480079 46.81171228 11.44480079 46.81171228 14 46 C15.79358757 43.2134832 16.25959566 40.96904039 16.31884766 37.69042969 C16.33871735 36.84986023 16.35858704 36.00929077 16.37905884 35.14324951 C16.39638565 33.79616913 16.39638565 33.79616913 16.4140625 32.421875 C16.43342865 31.4953009 16.4527948 30.56872681 16.4727478 29.61407471 C16.53244767 26.65947629 16.57889068 23.70483871 16.625 20.75 C16.6631886 18.74477483 16.70224085 16.73956591 16.7421875 14.734375 C16.8381414 9.82304889 16.92220803 4.911646 17 0 C18.65 0 20.3 0 22 0 C22.10151557 6.45941732 22.17151376 12.91862852 22.21972656 19.37866211 C22.23982767 21.57568042 22.26711306 23.77264532 22.30175781 25.96948242 C22.35034093 29.12952866 22.37298405 32.28886687 22.390625 35.44921875 C22.41127014 36.42960617 22.43191528 37.40999359 22.45318604 38.42008972 C22.45462428 42.80243544 22.44353129 45.28204548 20.09887695 49.07739258 C17.38944873 51.55927547 15.50743349 52.87056027 11.81640625 53.1875 C11.07261719 53.125625 10.32882812 53.06375 9.5625 53 C8.82128906 52.95875 8.08007812 52.9175 7.31640625 52.875 C3.77867101 51.53865482 1.76457093 49.25188934 0 46 C-0.67255796 42.43886687 -0.58389594 38.96484631 -0.48828125 35.3515625 C-0.48120651 34.33903412 -0.47413177 33.32650574 -0.46684265 32.28329468 C-0.43895079 29.06309783 -0.37622008 25.84466744 -0.3125 22.625 C-0.28741049 20.4362231 -0.26459846 18.24741884 -0.24414062 16.05859375 C-0.1891416 10.70513088 -0.10556775 5.35269166 0 0 Z " fill="#89ADA3" transform="translate(300,137)"/>
<path d="M0 0 C3.51369778 0.45142016 5.33602363 1.89532327 7.89776611 4.2611084 C8.66053864 4.96050537 9.42331116 5.65990234 10.209198 6.38049316 C11.03638336 7.15405151 11.86356873 7.92760986 12.71582031 8.72460938 C13.59422577 9.53671875 14.47263123 10.34882813 15.37765503 11.18554688 C23.5203353 18.74773018 31.54637872 26.43405087 39.53215408 34.16146088 C44.88837142 39.34060192 50.27576316 44.47429334 55.76757812 49.50976562 C95.65609002 86.14425408 95.65609002 86.14425408 96.99126816 106.04349518 C97.16253815 114.84575395 96.01766677 123.44828369 94 132 C93.01 132 92.02 132 91 132 C91.19979965 131.03179321 91.3995993 130.06358643 91.60545349 129.06604004 C94.00234358 116.00972777 95.14054768 101.00964665 88.34177399 89.09368896 C78.13087077 74.30966343 64.02658119 62.02746019 50.84743059 49.92530918 C45.47083294 44.9794765 40.21700115 39.91025891 34.96545804 34.83238506 C26.8133748 26.95772487 18.60348446 19.14694988 10.28930664 11.44335938 C9.06815155 10.30332458 9.06815155 10.30332458 7.82232666 9.14025879 C7.08057693 8.45761963 6.33882721 7.77498047 5.57460022 7.07165527 C4.92880036 6.47466576 4.28300051 5.87767624 3.61763096 5.26259613 C2.0792395 3.79490417 2.0792395 3.79490417 0 4 C-0.33 3.01 -0.66 2.02 -1 1 C-0.67 0.67 -0.34 0.34 0 0 Z " fill="#97B6AD" transform="translate(89,1)"/>
<path d="M0 0 C1.98 0 3.96 0 6 0 C6.33 15.18 6.66 30.36 7 46 C7.99 44.02 8.98 42.04 10 40 C11.6875 38.125 11.6875 38.125 13 37 C14.32 37.66 15.64 38.32 17 39 C17 43.29 17 47.58 17 52 C16.34 52 15.68 52 15 52 C15 50.35 15 48.7 15 47 C12.34589365 48.32705317 12.13360804 49.60689643 11 52.3125 C9.75214644 55.26152892 8.46099511 58.14975507 7 61 C6.34 61 5.68 61 5 61 C3.875 55.375 3.875 55.375 5 52 C3.35 52 1.7 52 0 52 C0 34.84 0 17.68 0 0 Z " fill="#8BAEA5" transform="translate(147,136)"/>
<path d="M0 0 C2.97 0 5.94 0 9 0 C9 16.83 9 33.66 9 51 C7.35 51 5.7 51 4 51 C3.505 30.21 3.505 30.21 3 9 C2.01 13.62 1.02 18.24 0 23 C-0.99 23 -1.98 23 -3 23 C-3.28599705 15.70707522 -3.30769324 6.61538648 0 0 Z " fill="#88ACA2" transform="translate(237,137)"/>
<path d="M0 0 C12.87 0 25.74 0 39 0 C40.14927198 18.38835175 40.14927198 18.38835175 40.09765625 27.625 C40.0962413 28.62337891 40.09482635 29.62175781 40.09336853 30.65039062 C40.0878745 33.76696068 40.07534425 36.88345253 40.0625 40 C40.05747123 42.14322811 40.05291078 44.28645738 40.04882812 46.4296875 C40.0379402 51.61982073 40.02075275 56.80989722 40 62 C39.34 62 38.68 62 38 62 C37.02602714 58.73897134 36.87882482 55.80178129 36.88647461 52.40527344 C36.88655014 51.28441345 36.88662567 50.16355347 36.88670349 49.00872803 C36.89186478 47.80444153 36.89702606 46.60015503 36.90234375 45.359375 C36.9037587 44.12205627 36.90517365 42.88473755 36.90663147 41.60992432 C36.9112789 38.32855059 36.92025653 35.04722627 36.93133545 31.76586914 C36.9415848 28.41422989 36.94605141 25.06258852 36.95117188 21.7109375 C36.961349 15.14058566 36.98092477 8.57035617 37 2 C25.12 2 13.24 2 1 2 C1 21.47 1 40.94 1 61 C0.67 61 0.34 61 0 61 C0 40.87 0 20.74 0 0 Z " fill="#84AA9F" transform="translate(72,201)"/>
<path d="M0 0 C0.66 0 1.32 0 2 0 C2 14.19 2 28.38 2 43 C-33.97 43 -69.94 43 -107 43 C-107 42.34 -107 41.68 -107 41 C-71.69 41 -36.38 41 0 41 C0 27.47 0 13.94 0 0 Z " fill="#86ABA1" transform="translate(181,222)"/>
<path d="M0 0 C0.66 0 1.32 0 2 0 C2.82839422 5.37420753 0.00085419 8.43835309 -3 12.5625 C-3.94595911 13.87022456 -4.88382043 15.18385458 -5.8125 16.50390625 C-6.23144531 17.07955322 -6.65039062 17.6552002 -7.08203125 18.24829102 C-8.30944562 20.26088747 -8.30944562 20.26088747 -8 24 C-7.443125 23.505 -6.88625 23.01 -6.3125 22.5 C-3.48959909 20.66892914 -2.30178235 20.35574979 1 21 C1.7425 21.825 2.485 22.65 3.25 23.5 C6.04026079 26.03660072 6.53692641 26.45246176 10.0625 26.6875 C15.4066707 26.41894871 19.60720566 23.98168255 24.203125 21.41015625 C26.86832109 20.06639118 29.06306403 19.4233904 32 19 C32 21.64 32 24.28 32 27 C30.125 27.625 30.125 27.625 28 28 C27.34 27.34 26.68 26.68 26 26 C25.01 26.495 25.01 26.495 24 27 C24 26.34 24 25.68 24 25 C23.45472656 25.3609375 22.90945312 25.721875 22.34765625 26.09375 C16.92721594 29.42940558 12.40189749 31.37448863 6 30 C2.9375 28.125 2.9375 28.125 1 26 C1 25.34 1 24.68 1 24 C-4.04523873 25.29064247 -6.45256149 27.26080805 -10 31 C-10.99 31.33 -11.98 31.66 -13 32 C-13.44766166 25.43429568 -12.13698108 19.21488992 -10 13 C-9.34 12.67 -8.68 12.34 -8 12 C-8 12.66 -8 13.32 -8 14 C-7.34 14 -6.68 14 -6 14 C-5.7525 13.175 -5.505 12.35 -5.25 11.5 C-3.81295189 7.47626529 -1.97645485 3.78020976 0 0 Z " fill="#6C6C6C" transform="translate(160,183)"/>
<path d="M0 0 C4.19093221 3.59222761 8.10213793 6.98063236 11.9375 10.875 C12.70964844 11.65617187 13.48179688 12.43734375 14.27734375 13.2421875 C14.84582031 13.82226562 15.41429687 14.40234375 16 15 C11.31645873 20.64426769 6.3792354 26.0058046 1 31 C0.67 31 0.34 31 0 31 C0 20.77 0 10.54 0 0 Z " fill="#FDFDFD" transform="translate(43,16)"/>
<path d="M0 0 C1 1 1 1 1.0625 3.5625 C1.041875 4.366875 1.02125 5.17125 1 6 C-2.85756507 8.15305957 -5.55129785 9.39253254 -10 9 C-9.20882096 10.99983534 -9.20882096 10.99983534 -8 13 C1.79479548 16.26493183 11.04038381 13.3147947 20 9 C22.10851331 7.76179237 24.02278422 6.44283314 26 5 C26.66 5 27.32 5 28 5 C26.76961753 8.82020851 24.41973881 10.2984056 20.99731445 12.19799805 C11.64452717 16.97471494 3.4606958 18.64814821 -7 17 C-10.71105587 15.20432781 -12.52459542 13.88970297 -14 10 C-15.051875 10.680625 -16.10375 11.36125 -17.1875 12.0625 C-19.90327009 13.6356595 -20.70477974 14.02512513 -23.9375 13.75 C-24.618125 13.5025 -25.29875 13.255 -26 13 C-23.45355068 11.30236712 -20.88597088 9.73879342 -18.25 8.1875 C-15.08989466 6.31807722 -12.13851352 4.38809876 -9.25 2.125 C-5.7394667 -0.1703487 -4.10151039 -0.58593006 0 0 Z " fill="#5C5C5C" transform="translate(301,197)"/>
<path d="M0 0 C6 0 6 0 7.8515625 1.0625 C9.60635016 4.02295809 9.3962957 6.59268789 9.375 10 C9.38273437 11.2375 9.39046875 12.475 9.3984375 13.75 C9 17 9 17 7.8515625 18.9375 C6 20 6 20 0 20 C0 13.4 0 6.8 0 0 Z " fill="#FBFCFC" transform="translate(270,164)"/>
<path d="M0 0 C1.32 0.66 2.64 1.32 4 2 C4 6.29 4 10.58 4 15 C3.34 15 2.68 15 2 15 C2 13.35 2 11.7 2 10 C-0.65410635 11.32705317 -0.86639196 12.60689643 -2 15.3125 C-3.24785356 18.26152892 -4.53900489 21.14975507 -6 24 C-6.66 24 -7.32 24 -8 24 C-9.94019264 17.12113517 -7.27339145 11.86513075 -4.5 5.625 C-3.17839615 3.31219327 -2.00798106 1.72112662 0 0 Z " fill="#666D6B" transform="translate(160,173)"/>
<path d="M0 0 C2.31 0.33 4.62 0.66 7 1 C8.35550385 3.7110077 8.16917207 5.91339169 8.1875 8.9375 C8.20167969 9.99839844 8.21585937 11.05929688 8.23046875 12.15234375 C8 15 8 15 6 18 C4.02 18 2.04 18 0 18 C0 12.06 0 6.12 0 0 Z " fill="#FDFDFD" transform="translate(270,141)"/>
<path d="M0 0 C0.33 0 0.66 0 1 0 C1 15.18 1 30.36 1 46 C0.34 46 -0.32 46 -1 46 C-1.78670772 43.21945349 -2.12265947 40.76039307 -2.11352539 37.87402344 C-2.11344986 37.07349548 -2.11337433 36.27296753 -2.11329651 35.44818115 C-2.10813522 34.59387512 -2.10297394 33.73956909 -2.09765625 32.859375 C-2.0962413 31.97719299 -2.09482635 31.09501099 -2.09336853 30.18609619 C-2.08778001 27.37402935 -2.07522961 24.5620427 -2.0625 21.75 C-2.05748352 19.84114698 -2.05292087 17.93229272 -2.04882812 16.0234375 C-2.03781434 11.34892753 -2.02055758 6.67447735 -2 2 C-1.34 2 -0.68 2 0 2 C0 1.34 0 0.68 0 0 Z " fill="#99B8B0" transform="translate(111,217)"/>
<path d="M0 0 C0.33 0 0.66 0 1 0 C1.50763865 2.68625454 2.00627197 5.37368383 2.5 8.0625 C2.64308594 8.81466797 2.78617188 9.56683594 2.93359375 10.34179688 C3.776431 14.97740175 4.15015262 19.2889615 4 24 C1.36 24 -1.28 24 -4 24 C-2.38297872 2.38297872 -2.38297872 2.38297872 0 0 Z " fill="#F5F8F7" transform="translate(188,146)"/>
<path d="M0 0 C-1.23038247 3.82020851 -3.58026119 5.2984056 -7.00268555 7.19799805 C-16.35547283 11.97471494 -24.5393042 13.64814821 -35 12 C-37.98828125 10.45703125 -37.98828125 10.45703125 -40 9 C-39.67 7.35 -39.34 5.7 -39 4 C-38.3503125 4.9590625 -38.3503125 4.9590625 -37.6875 5.9375 C-35.53625209 8.566803 -33.85628499 8.90485722 -30.5390625 9.2734375 C-18.90865295 9.67878689 -9.62913265 0 0 0 Z " fill="#5C5C5C" transform="translate(329,202)"/>
<path d="M0 0 C0.66 0.33 1.32 0.66 2 1 C2 3.31 2 5.62 2 8 C0.125 8.625 0.125 8.625 -2 9 C-2.66 8.34 -3.32 7.68 -4 7 C-4.99 7.495 -4.99 7.495 -6 8 C-6 7.34 -6 6.68 -6 6 C-6.54527344 6.3609375 -7.09054688 6.721875 -7.65234375 7.09375 C-13.45117087 10.662259 -17.21577529 11.53843053 -24 11 C-24 10.34 -24 9.68 -24 9 C-22.7625 8.79375 -21.525 8.5875 -20.25 8.375 C-14.9173017 7.21534973 -10.40299902 4.87703695 -5.6015625 2.33984375 C-3 1 -3 1 0 0 Z " fill="#616161" transform="translate(190,202)"/>
<path d="M0 0 C2.8125 0.8125 2.8125 0.8125 3.8125 1.8125 C3.85313832 3.47867115 3.855221 5.14638095 3.8125 6.8125 C3.1525 6.8125 2.4925 6.8125 1.8125 6.8125 C1.833125 7.616875 1.85375 8.42125 1.875 9.25 C1.8125 11.8125 1.8125 11.8125 0.8125 12.8125 C-2.125 13 -2.125 13 -5.1875 12.8125 C-5.8475 12.1525 -6.5075 11.4925 -7.1875 10.8125 C-6.8125 8.6875 -6.8125 8.6875 -6.1875 6.8125 C-5.1975 8.2975 -5.1975 8.2975 -4.1875 9.8125 C-3.1975 9.8125 -2.2075 9.8125 -1.1875 9.8125 C-1.1875 7.5025 -1.1875 5.1925 -1.1875 2.8125 C-3.1675 3.1425 -5.1475 3.4725 -7.1875 3.8125 C-3.9984029 -0.23520017 -3.9984029 -0.23520017 0 0 Z " fill="#5C5C5C" transform="translate(192.1875,200.1875)"/>
<path d="M0 0 C0.66 0 1.32 0 2 0 C2.25072026 3.8530421 1.81295841 5.90333159 -0.3359375 9.1015625 C-0.82320312 9.83890625 -1.31046875 10.57625 -1.8125 11.3359375 C-2.328125 12.09132812 -2.84375 12.84671875 -3.375 13.625 C-3.88289062 14.388125 -4.39078125 15.15125 -4.9140625 15.9375 C-6.26597563 17.9653697 -7.63105935 19.98360932 -9 22 C-9.66 22.99 -10.32 23.98 -11 25 C-11.16682272 20.07872966 -11.24828052 16.49656104 -9 12 C-8.67 12.66 -8.34 13.32 -8 14 C-7.34 14 -6.68 14 -6 14 C-5.7525 13.175 -5.505 12.35 -5.25 11.5 C-3.81295189 7.47626529 -1.97645485 3.78020976 0 0 Z " fill="#555555" transform="translate(160,183)"/>
<path d="M0 0 C3.33269747 0.33326975 5.60876269 1.69416402 8 4 C8 5.32 8 6.64 8 8 C1.72307692 9.35384615 1.72307692 9.35384615 -1.9375 7.5625 C-2.618125 7.046875 -3.29875 6.53125 -4 6 C-2.84826645 3.53199953 -1.95216435 1.95216435 0 0 Z " fill="#F2F2F2" transform="translate(262,201)"/>
<path d="M0 0 C0.639375 0.33 1.27875 0.66 1.9375 1 C5.42496541 2.13876422 8.20941521 2.09481848 11.83984375 2.00390625 C14.32865009 1.9994057 16.59296152 2.37882878 19 3 C19 3.66 19 4.32 19 5 C15.83800849 6.05399717 13.38539814 6.23445913 10.0625 6.3125 C9.02222656 6.34988281 7.98195313 6.38726562 6.91015625 6.42578125 C3.32523962 5.90127667 2.18102485 4.83270456 0 2 C0 1.34 0 0.68 0 0 Z " fill="#555555" transform="translate(258,207)"/>
<path d="M0 0 C-0.350625 0.5775 -0.70125 1.155 -1.0625 1.75 C-2.15379646 3.90283382 -2.15379646 3.90283382 -1.875 6 C-1.06927699 8.18539608 -1.06927699 8.18539608 1.0625 10 C3 12 3 12 3 16 C2.01 16 1.02 16 0 16 C-0.04125 15.4225 -0.0825 14.845 -0.125 14.25 C-1.44065958 10.86687535 -3.96552364 9.80777315 -7 8 C-6.34 7.01 -5.68 6.02 -5 5 C-5.66 4.67 -6.32 4.34 -7 4 C-3.375 0 -3.375 0 0 0 Z M-2 16 C0 17 0 17 0 17 Z " fill="#636363" transform="translate(270,193)"/>
<path d="M0 0 C0.33 0 0.66 0 1 0 C1.144375 1.134375 1.28875 2.26875 1.4375 3.4375 C1.61171478 6.80777201 1.61171478 6.80777201 3 8 C4.51928038 8.07179964 6.04167482 8.08392007 7.5625 8.0625 C8.38878906 8.05347656 9.21507812 8.04445312 10.06640625 8.03515625 C10.70449219 8.02355469 11.34257812 8.01195312 12 8 C12.33 8.99 12.66 9.98 13 11 C9.79111002 12.60444499 6.48094924 12.47373865 3 12 C0.4375 10.5 0.4375 10.5 -1 8 C-1.01614614 5.17980671 -0.55884898 2.7942449 0 0 Z " fill="#757575" transform="translate(231,203)"/>
<path d="M0 0 C5.28 0 10.56 0 16 0 C16 0.99 16 1.98 16 3 C12.32612505 3.85298376 8.9552607 4.10789471 5.1875 4.0625 C3.72376953 4.04896484 3.72376953 4.04896484 2.23046875 4.03515625 C1.12638672 4.01775391 1.12638672 4.01775391 0 4 C0 2.68 0 1.36 0 0 Z " fill="#6B6B6B" transform="translate(194,207)"/>
<path d="M0 0 C0.66 0 1.32 0 2 0 C2.83861979 5.36716665 -0.07929595 8.79627239 -3 13 C-3.66 12.67 -4.32 12.34 -5 12 C-3.41037341 7.96479403 -1.71767682 3.98188718 0 0 Z " fill="#5C5E5E" transform="translate(160,183)"/>
<path d="M0 0 C0.66 0.33 1.32 0.66 2 1 C2 3.31 2 5.62 2 8 C0.0625 8.5625 0.0625 8.5625 -2 9 C-3 8 -3 8 -3.25 5.625 C-3 3 -3 3 -1.5 1.1875 C-1.005 0.795625 -0.51 0.40375 0 0 Z " fill="#EBEBEB" transform="translate(190,202)"/>
<path d="M0 0 C0.66 0.33 1.32 0.66 2 1 C1 4 1 4 -1.75 5.75 C-5.17896517 7.06883276 -6.57318882 7.10867421 -10 6 C-6.71739341 3.81159561 -3.49181927 1.84114107 0 0 Z " fill="#676767" transform="translate(285,204)"/>
<path d="M0 0 C-1.05565533 3.28426103 -2.61660352 4.57151556 -5.5 6.25 C-9 8 -9 8 -11 8 C-9.83630874 4.50892621 -9.11026462 4.14777237 -6.0625 2.3125 C-5.35222656 1.87550781 -4.64195312 1.43851563 -3.91015625 0.98828125 C-2 0 -2 0 0 0 Z " fill="#5A5A5A" transform="translate(329,202)"/>
<path d="M0 0 C0.66 0 1.32 0 2 0 C1.67 3.63 1.34 7.26 1 11 C0.34 10.67 -0.32 10.34 -1 10 C-1 9.34 -1 8.68 -1 8 C-1.99 7.67 -2.98 7.34 -4 7 C-2.79618552 4.50638429 -1.54571278 2.31856917 0 0 Z " fill="#555555" transform="translate(230,200)"/>
<path d="M0 0 C2.475 0.495 2.475 0.495 5 1 C4.67 4.3 4.34 7.6 4 11 C2 9.4375 2 9.4375 0 7 C-0.25 3.25 -0.25 3.25 0 0 Z " fill="#A3BFB7" transform="translate(233,156)"/>
<path d="M0 0 C0.66 0.33 1.32 0.66 2 1 C-1.625 6.75 -1.625 6.75 -5 9 C-7.1875 8.625 -7.1875 8.625 -9 8 C-7.62100451 5.24200902 -5.62327638 4.56147404 -3 3 C-1.24850835 1.41754725 -1.24850835 1.41754725 0 0 Z " fill="#6A6A6A" transform="translate(227,204)"/>
<path d="M0 0 C-0.33 0.5775 -0.66 1.155 -1 1.75 C-2.27075898 4.19883862 -2.27075898 4.19883862 -2 8 C-2.99 8.33 -3.98 8.66 -5 9 C-5.66 8.34 -6.32 7.68 -7 7 C-6.34 6.34 -5.68 5.68 -5 5 C-5.66 4.67 -6.32 4.34 -7 4 C-3.375 0 -3.375 0 0 0 Z " fill="#696969" transform="translate(270,193)"/>
<path d="M0 0 C0 4.29 0 8.58 0 13 C-0.66 13 -1.32 13 -2 13 C-2 11.35 -2 9.7 -2 8 C-2.66 8 -3.32 8 -4 8 C-3.74438677 5.6568787 -3.40729228 3.32156597 -3 1 C-1 0 -1 0 0 0 Z " fill="#737E7B" transform="translate(164,175)"/>
<path d="M0 0 C0 0.99 0 1.98 0 3 C-4.455 4.485 -4.455 4.485 -9 6 C-9.33 5.01 -9.66 4.02 -10 3 C-8.70990357 2.49596232 -7.41786211 1.99690074 -6.125 1.5 C-5.04605469 1.08234375 -5.04605469 1.08234375 -3.9453125 0.65625 C-2 0 -2 0 0 0 Z " fill="#696969" transform="translate(318,208)"/>
<path d="M0 0 C1.32 0 2.64 0 4 0 C3.67 2.64 3.34 5.28 3 8 C2.01 8 1.02 8 0 8 C0 5.36 0 2.72 0 0 Z " fill="#8AAEA4" transform="translate(232,163)"/>
<path d="M0 0 C0.99 0 1.98 0 3 0 C3.33 2.64 3.66 5.28 4 8 C2.35 7.67 0.7 7.34 -1 7 C-0.67 4.69 -0.34 2.38 0 0 Z " fill="#9BB9B1" transform="translate(224,147)"/>
<path d="M0 0 C4.75 1.875 4.75 1.875 7 3 C7 3.99 7 4.98 7 6 C3.75728494 5.4409112 2.06942576 4.5867822 0 2 C0 1.34 0 0.68 0 0 Z " fill="#5D5D5D" transform="translate(258,207)"/>
<path d="M0 0 C1.98 0 3.96 0 6 0 C6.33 1.32 6.66 2.64 7 4 C6.34 4 5.68 4 5 4 C5 3.34 5 2.68 5 2 C3.02 2.66 1.04 3.32 -1 4 C-0.67 2.68 -0.34 1.36 0 0 Z " fill="#585858" transform="translate(295,197)"/>
<path d="M0 0 C-1 3 -1 3 -2.875 4.25 C-5 5 -5 5 -8 4 C-3.375 0 -3.375 0 0 0 Z " fill="#E7E7E7" transform="translate(300,199)"/>
<path d="M0 0 C0.33 0 0.66 0 1 0 C0.67 2.64 0.34 5.28 0 8 C-0.99 8 -1.98 8 -3 8 C-2.45276317 4.62537285 -1.9451 2.91765 0 0 Z " fill="#EAEBEB" transform="translate(160,176)"/>
<path d="M0 0 C0.33 0.99 0.66 1.98 1 3 C1.99 3.33 2.98 3.66 4 4 C3.625 5.9375 3.625 5.9375 3 8 C2.01 8.495 2.01 8.495 1 9 C0.67 6.03 0.34 3.06 0 0 Z " fill="#96B6AD" transform="translate(235,145)"/>
<path d="M0 0 C0 0.99 0 1.98 0 3 C-2.5 5.1875 -2.5 5.1875 -5 7 C-5.66 6.67 -6.32 6.34 -7 6 C-3.375 1.125 -3.375 1.125 0 0 Z " fill="#505050" transform="translate(265,197)"/>
<path d="M0 0 C0.66 0 1.32 0 2 0 C1.50168276 3.68754757 0.89932357 5.60490662 -2 8 C-1.125 1.125 -1.125 1.125 0 0 Z " fill="#E1E3E2" transform="translate(155,188)"/>
</svg>
